<?xml version="1.0" encoding="UTF-8" standalone="no"?>
<?xml-stylesheet href="styles.css" type="text/css"?>
<!DOCTYPE svg PUBLIC "-//W3C//DTD SVG 1.1//EN"
 "http://www.w3.org/Graphics/SVG/1.1/DTD/svg11.dtd">
<!-- Generated by graphviz version 2.43.0 (0)
 -->
<!-- Title: MyOperators Pages: 1 -->
<svg width="588pt" height="413pt"
 viewBox="0.00 0.00 588.00 413.00" xmlns="http://www.w3.org/2000/svg" xmlns:xlink="http://www.w3.org/1999/xlink">
<g id="graph0" class="graph" transform="scale(1 1) rotate(0) translate(4 409)">
<title>MyOperators</title>
<polygon fill="white" stroke="transparent" points="-4,4 -4,-409 584,-409 584,4 -4,4"/>
<g id="clust1" class="cluster">
<title>cluster_MyOperators</title>
<polygon fill="#fff8dc" stroke="black" points="8,-8 8,-397 572,-397 572,-8 8,-8"/>
<text text-anchor="middle" x="290" y="-381.8" font-family="Times,serif" font-size="14.00">MyOperators</text>
</g>
<!-- cluster_MyOperators_clock -->
<g id="node1" class="node">
<title>cluster_MyOperators_clock</title>
<polygon fill="#cccccc" stroke="black" points="96,-366 42,-366 42,-330 96,-330 96,-366"/>
<text text-anchor="middle" x="69" y="-344.3" font-family="Times,serif" font-size="14.00">clock</text>
</g>
<!-- cluster_MyOperators_reset -->
<g id="node2" class="node">
<title>cluster_MyOperators_reset</title>
<polygon fill="#cccccc" stroke="black" points="96,-312 42,-312 42,-276 96,-276 96,-312"/>
<text text-anchor="middle" x="69" y="-290.3" font-family="Times,serif" font-size="14.00">reset</text>
</g>
<!-- cluster_MyOperators_io_in -->
<g id="node3" class="node">
<title>cluster_MyOperators_io_in</title>
<polygon fill="#cccccc" stroke="black" points="96,-258 42,-258 42,-222 96,-222 96,-258"/>
<text text-anchor="middle" x="69" y="-236.3" font-family="Times,serif" font-size="14.00">io_in</text>
</g>
<!-- cluster_MyOperators_io_out_add -->
<g id="node4" class="node">
<title>cluster_MyOperators_io_out_add</title>
<polygon fill="#e0ffff" stroke="black" points="271,-204 179,-204 179,-168 271,-168 271,-204"/>
<text text-anchor="middle" x="225" y="-182.3" font-family="Times,serif" font-size="14.00">io_out_add</text>
</g>
<!-- cluster_MyOperators_io_out_sub -->
<g id="node5" class="node">
<title>cluster_MyOperators_io_out_sub</title>
<polygon fill="#e0ffff" stroke="black" points="564,-139 472,-139 472,-103 564,-103 564,-139"/>
<text text-anchor="middle" x="518" y="-117.3" font-family="Times,serif" font-size="14.00">io_out_sub</text>
</g>
<!-- cluster_MyOperators_io_out_mul -->
<g id="node6" class="node">
<title>cluster_MyOperators_io_out_mul</title>
<polygon fill="#e0ffff" stroke="black" points="428.5,-63 335.5,-63 335.5,-27 428.5,-27 428.5,-63"/>
<text text-anchor="middle" x="382" y="-41.3" font-family="Times,serif" font-size="14.00">io_out_mul</text>
</g>
<!-- cluster_MyOperators_lit4 -->
<g id="node7" class="node">
<title>cluster_MyOperators_lit4</title>
<ellipse fill="lightgrey" stroke="black" cx="69" cy="-186" rx="18" ry="18"/>
<text text-anchor="middle" x="69" y="-182.3" font-family="Times,serif" font-size="14.00">5</text>
</g>
<!-- cluster_MyOperators_lit4&#45;&gt;cluster_MyOperators_io_out_add -->
<g id="edge4" class="edge">
<title>cluster_MyOperators_lit4&#45;&gt;cluster_MyOperators_io_out_add</title>
<path fill="none" stroke="black" d="M87.07,-186C106.67,-186 139.82,-186 168.6,-186"/>
<polygon fill="black" stroke="black" points="168.97,-189.5 178.97,-186 168.97,-182.5 168.97,-189.5"/>
</g>
<!-- op_pad_5 -->
<g id="node8" class="node">
<title>op_pad_5</title>
<polygon fill="#d8bfd8" stroke="transparent" points="336,-109.5 336,-134.5 428,-134.5 428,-109.5 336,-109.5"/>
<polygon fill="none" stroke="black" points="336,-109 336,-134 359,-134 359,-109 336,-109"/>
<text text-anchor="start" x="341" y="-117.8" font-family="Times,serif" font-size="14.00">●</text>
<polygon fill="none" stroke="black" points="359,-109 359,-134 405,-134 405,-109 359,-109"/>
<text text-anchor="start" x="364" y="-117.8" font-family="Times,serif" font-size="14.00"> pad </text>
<polygon fill="none" stroke="black" points="405,-109 405,-134 428,-134 428,-109 405,-109"/>
<text text-anchor="start" x="410" y="-117.8" font-family="Times,serif" font-size="14.00">●</text>
</g>
<!-- op_pad_5&#45;&gt;cluster_MyOperators_io_out_sub -->
<g id="edge6" class="edge">
<title>op_pad_5:out&#45;&gt;cluster_MyOperators_io_out_sub</title>
<path fill="none" stroke="black" d="M429,-121C439.54,-121 450.78,-121 461.59,-121"/>
<polygon fill="black" stroke="black" points="461.78,-124.5 471.78,-121 461.78,-117.5 461.78,-124.5"/>
</g>
<!-- op_tail_6 -->
<g id="node9" class="node">
<title>op_tail_6</title>
<polygon fill="#d8bfd8" stroke="transparent" points="180.5,-96 180.5,-146 269.5,-146 269.5,-96 180.5,-96"/>
<polygon fill="none" stroke="black" points="181,-121 181,-146 204,-146 204,-121 181,-121"/>
<text text-anchor="start" x="186" y="-129.8" font-family="Times,serif" font-size="14.00">●</text>
<polygon fill="none" stroke="black" points="204,-96 204,-146 247,-146 247,-96 204,-96"/>
<text text-anchor="start" x="209" y="-117.3" font-family="Times,serif" font-size="14.00"> tail </text>
<polygon fill="none" stroke="black" points="247,-96 247,-146 270,-146 270,-96 247,-96"/>
<text text-anchor="start" x="252" y="-117.3" font-family="Times,serif" font-size="14.00">●</text>
<polygon fill="none" stroke="black" points="181,-96 181,-121 204,-121 204,-96 181,-96"/>
<text text-anchor="start" x="187.5" y="-104.8" font-family="Times,serif" font-size="14.00">1</text>
</g>
<!-- op_tail_6&#45;&gt;op_pad_5 -->
<g id="edge5" class="edge">
<title>op_tail_6:out&#45;&gt;op_pad_5:in1</title>
<path fill="none" stroke="black" d="M271,-121C295.78,-121 304.37,-121 324.97,-121"/>
<polygon fill="black" stroke="black" points="325,-124.5 335,-121 325,-117.5 325,-124.5"/>
</g>
<!-- op_sub_7 -->
<g id="node10" class="node">
<title>op_sub_7</title>
<polygon fill="#d8bfd8" stroke="transparent" points="25,-96 25,-146 113,-146 113,-96 25,-96"/>
<polygon fill="none" stroke="black" points="25,-121 25,-146 45,-146 45,-121 25,-121"/>
<text text-anchor="start" x="30" y="-129.8" font-family="Times,serif" font-size="14.00">2</text>
<polygon fill="none" stroke="black" points="45,-96 45,-146 90,-146 90,-96 45,-96"/>
<text text-anchor="start" x="50" y="-117.3" font-family="Times,serif" font-size="14.00"> sub </text>
<polygon fill="none" stroke="black" points="90,-96 90,-146 113,-146 113,-96 90,-96"/>
<text text-anchor="start" x="95" y="-117.3" font-family="Times,serif" font-size="14.00">●</text>
<polygon fill="none" stroke="black" points="25,-96 25,-121 45,-121 45,-96 25,-96"/>
<text text-anchor="start" x="30" y="-104.8" font-family="Times,serif" font-size="14.00">1</text>
</g>
<!-- op_sub_7&#45;&gt;op_tail_6 -->
<g id="edge2" class="edge">
<title>op_sub_7:out&#45;&gt;op_tail_6:in1</title>
<path fill="none" stroke="black" d="M114,-121C140.16,-121 148.18,-130.95 169.81,-133.44"/>
<polygon fill="black" stroke="black" points="169.82,-136.95 180,-134 170.21,-129.96 169.82,-136.95"/>
</g>
<!-- op_bits_8 -->
<g id="node11" class="node">
<title>op_bits_8</title>
<polygon fill="#d8bfd8" stroke="transparent" points="166,-20 166,-70 284,-70 284,-20 166,-20"/>
<polygon fill="none" stroke="black" points="166,-45 166,-70 214,-70 214,-45 166,-45"/>
<text text-anchor="start" x="183.5" y="-53.8" font-family="Times,serif" font-size="14.00">●</text>
<polygon fill="none" stroke="black" points="214,-20 214,-70 261,-70 261,-20 214,-20"/>
<text text-anchor="start" x="219" y="-41.3" font-family="Times,serif" font-size="14.00"> bits </text>
<polygon fill="none" stroke="black" points="261,-20 261,-70 284,-70 284,-20 261,-20"/>
<text text-anchor="start" x="266" y="-41.3" font-family="Times,serif" font-size="14.00">●</text>
<polygon fill="none" stroke="black" points="166,-20 166,-45 214,-45 214,-20 166,-20"/>
<text text-anchor="start" x="171" y="-28.8" font-family="Times,serif" font-size="14.00">(3, 0)</text>
</g>
<!-- op_bits_8&#45;&gt;cluster_MyOperators_io_out_mul -->
<g id="edge3" class="edge">
<title>op_bits_8:out&#45;&gt;cluster_MyOperators_io_out_mul</title>
<path fill="none" stroke="black" d="M285,-45C297.89,-45 311.75,-45 324.82,-45"/>
<polygon fill="black" stroke="black" points="325.1,-48.5 335.1,-45 325.1,-41.5 325.1,-48.5"/>
</g>
<!-- op_mul_9 -->
<g id="node12" class="node">
<title>op_mul_9</title>
<polygon fill="#d8bfd8" stroke="transparent" points="24,-20 24,-70 114,-70 114,-20 24,-20"/>
<polygon fill="none" stroke="black" points="24,-45 24,-70 44,-70 44,-45 24,-45"/>
<text text-anchor="start" x="29" y="-53.8" font-family="Times,serif" font-size="14.00">4</text>
<polygon fill="none" stroke="black" points="44,-20 44,-70 91,-70 91,-20 44,-20"/>
<text text-anchor="start" x="49" y="-41.3" font-family="Times,serif" font-size="14.00"> mul </text>
<polygon fill="none" stroke="black" points="91,-20 91,-70 114,-70 114,-20 91,-20"/>
<text text-anchor="start" x="96" y="-41.3" font-family="Times,serif" font-size="14.00">●</text>
<polygon fill="none" stroke="black" points="24,-20 24,-45 44,-45 44,-20 24,-20"/>
<text text-anchor="start" x="29" y="-28.8" font-family="Times,serif" font-size="14.00">2</text>
</g>
<!-- op_mul_9&#45;&gt;op_bits_8 -->
<g id="edge1" class="edge">
<title>op_mul_9:out&#45;&gt;op_bits_8:in1</title>
<path fill="none" stroke="black" d="M115,-45C134.01,-45 140.08,-53.92 154.64,-56.98"/>
<polygon fill="black" stroke="black" points="154.71,-60.5 165,-58 155.39,-53.54 154.71,-60.5"/>
</g>
</g>
</svg>
