<?xml version="1.0" encoding="UTF-8" standalone="no"?>
<?xml-stylesheet href="styles.css" type="text/css"?>
<!DOCTYPE svg PUBLIC "-//W3C//DTD SVG 1.1//EN"
 "http://www.w3.org/Graphics/SVG/1.1/DTD/svg11.dtd">
<!-- Generated by graphviz version 2.43.0 (0)
 -->
<!-- Title: Hello Pages: 1 -->
<svg width="1207pt" height="317pt"
 viewBox="0.00 0.00 1207.00 316.65" xmlns="http://www.w3.org/2000/svg" xmlns:xlink="http://www.w3.org/1999/xlink">
<g id="graph0" class="graph" transform="scale(1 1) rotate(0) translate(4 312.65)">
<title>Hello</title>
<polygon fill="white" stroke="transparent" points="-4,4 -4,-312.65 1203,-312.65 1203,4 -4,4"/>
<g id="clust1" class="cluster">
<title>cluster_Hello</title>
<polygon fill="#fff8dc" stroke="black" points="8,-17.66 8,-284.66 1191,-284.66 1191,-17.66 8,-17.66"/>
<text text-anchor="middle" x="599.5" y="-269.46" font-family="Times,serif" font-size="14.00">Hello</text>
</g>
<!-- cluster_Hello_clock -->
<g id="node1" class="node">
<title>cluster_Hello_clock</title>
<polygon fill="#cccccc" stroke="black" points="70,-243.66 16,-243.66 16,-207.66 70,-207.66 70,-243.66"/>
<text text-anchor="middle" x="43" y="-221.96" font-family="Times,serif" font-size="14.00">clock</text>
</g>
<!-- cluster_Hello_reset -->
<g id="node2" class="node">
<title>cluster_Hello_reset</title>
<polygon fill="#cccccc" stroke="black" points="70,-169.66 16,-169.66 16,-133.66 70,-133.66 70,-169.66"/>
<text text-anchor="middle" x="43" y="-147.96" font-family="Times,serif" font-size="14.00">reset</text>
</g>
<!-- mux_1762996813 -->
<g id="node8" class="node">
<title>mux_1762996813</title>
<polygon fill="#afeeee" stroke="transparent" points="114,-116.66 114,-166.66 186,-166.66 186,-116.66 114,-116.66"/>
<polygon fill="none" stroke="black" points="114,-141.66 114,-166.66 137,-166.66 137,-141.66 114,-141.66"/>
<text text-anchor="start" x="120.5" y="-150.46" font-family="Times,serif" font-size="14.00">0</text>
<polygon fill="none" stroke="black" points="137,-116.66 137,-166.66 163,-166.66 163,-116.66 137,-116.66"/>
<text text-anchor="start" x="142" y="-137.96" font-family="Times,serif" font-size="14.00">a?</text>
<polygon fill="none" stroke="black" points="163,-116.66 163,-166.66 186,-166.66 186,-116.66 163,-116.66"/>
<text text-anchor="start" x="168" y="-137.96" font-family="Times,serif" font-size="14.00">●</text>
<polygon fill="none" stroke="black" points="114,-116.66 114,-141.66 137,-141.66 137,-116.66 114,-116.66"/>
<text text-anchor="start" x="119" y="-125.46" font-family="Times,serif" font-size="14.00">●</text>
</g>
<!-- cluster_Hello_reset&#45;&gt;mux_1762996813 -->
<g id="edge17" class="edge">
<title>cluster_Hello_reset&#45;&gt;mux_1762996813:select</title>
<path fill="none" stroke="black" d="M70.2,-165.77C97.67,-179.3 138.16,-195.25 147.86,-177.46"/>
<polygon fill="black" stroke="black" points="151.28,-178.18 150,-167.66 144.45,-176.68 151.28,-178.18"/>
</g>
<!-- mux_2001981039 -->
<g id="node12" class="node">
<title>mux_2001981039</title>
<polygon fill="#afeeee" stroke="transparent" points="795.5,-179.66 795.5,-229.66 867.5,-229.66 867.5,-179.66 795.5,-179.66"/>
<polygon fill="none" stroke="black" points="795.5,-204.66 795.5,-229.66 818.5,-229.66 818.5,-204.66 795.5,-204.66"/>
<text text-anchor="start" x="802" y="-213.46" font-family="Times,serif" font-size="14.00">0</text>
<polygon fill="none" stroke="black" points="818.5,-179.66 818.5,-229.66 844.5,-229.66 844.5,-179.66 818.5,-179.66"/>
<text text-anchor="start" x="823.5" y="-200.96" font-family="Times,serif" font-size="14.00">a?</text>
<polygon fill="none" stroke="black" points="844.5,-179.66 844.5,-229.66 867.5,-229.66 867.5,-179.66 844.5,-179.66"/>
<text text-anchor="start" x="849.5" y="-200.96" font-family="Times,serif" font-size="14.00">●</text>
<polygon fill="none" stroke="black" points="795.5,-179.66 795.5,-204.66 818.5,-204.66 818.5,-179.66 795.5,-179.66"/>
<text text-anchor="start" x="800.5" y="-188.46" font-family="Times,serif" font-size="14.00">●</text>
</g>
<!-- cluster_Hello_reset&#45;&gt;mux_2001981039 -->
<g id="edge16" class="edge">
<title>cluster_Hello_reset&#45;&gt;mux_2001981039:select</title>
<path fill="none" stroke="black" d="M69.22,-169.72C112.35,-198.77 204.02,-252.66 290.5,-252.66 290.5,-252.66 290.5,-252.66 469.5,-252.66 627.07,-252.66 822.5,-385.66 831.2,-241.07"/>
<polygon fill="black" stroke="black" points="834.71,-240.76 831.5,-230.66 827.71,-240.55 834.71,-240.76"/>
</g>
<!-- cluster_Hello_io_led -->
<g id="node3" class="node">
<title>cluster_Hello_io_led</title>
<polygon fill="#e0ffff" stroke="black" points="1159.5,-199.66 1101.5,-199.66 1101.5,-163.66 1159.5,-163.66 1159.5,-199.66"/>
<text text-anchor="middle" x="1130.5" y="-177.96" font-family="Times,serif" font-size="14.00">io_led</text>
</g>
<!-- struct_cluster_Hello_cntReg -->
<g id="node4" class="node">
<title>struct_cluster_Hello_cntReg</title>
<polygon fill="#ffe4b5" stroke="transparent" points="238,-130.16 238,-155.16 345,-155.16 345,-130.16 238,-130.16"/>
<polygon fill="none" stroke="black" points="238.5,-129.66 238.5,-154.66 261.5,-154.66 261.5,-129.66 238.5,-129.66"/>
<text text-anchor="start" x="243.5" y="-138.46" font-family="Times,serif" font-size="14.00">●</text>
<polygon fill="none" stroke="black" points="261.5,-129.66 261.5,-154.66 322.5,-154.66 322.5,-129.66 261.5,-129.66"/>
<text text-anchor="start" x="266.5" y="-138.46" font-family="Times,serif" font-size="14.00">cntReg</text>
<polygon fill="none" stroke="black" points="322.5,-129.66 322.5,-154.66 345.5,-154.66 345.5,-129.66 322.5,-129.66"/>
<text text-anchor="start" x="327.5" y="-138.46" font-family="Times,serif" font-size="14.00">●</text>
</g>
<!-- op_add_1 -->
<g id="node7" class="node">
<title>op_add_1</title>
<polygon fill="#d8bfd8" stroke="transparent" points="422.5,-59.66 422.5,-109.66 514.5,-109.66 514.5,-59.66 422.5,-59.66"/>
<polygon fill="none" stroke="black" points="422.5,-84.66 422.5,-109.66 445.5,-109.66 445.5,-84.66 422.5,-84.66"/>
<text text-anchor="start" x="427.5" y="-93.46" font-family="Times,serif" font-size="14.00">●</text>
<polygon fill="none" stroke="black" points="445.5,-59.66 445.5,-109.66 491.5,-109.66 491.5,-59.66 445.5,-59.66"/>
<text text-anchor="start" x="450.5" y="-80.96" font-family="Times,serif" font-size="14.00"> add </text>
<polygon fill="none" stroke="black" points="491.5,-59.66 491.5,-109.66 514.5,-109.66 514.5,-59.66 491.5,-59.66"/>
<text text-anchor="start" x="496.5" y="-80.96" font-family="Times,serif" font-size="14.00">●</text>
<polygon fill="none" stroke="black" points="422.5,-59.66 422.5,-84.66 445.5,-84.66 445.5,-59.66 422.5,-59.66"/>
<text text-anchor="start" x="429" y="-68.46" font-family="Times,serif" font-size="14.00">1</text>
</g>
<!-- struct_cluster_Hello_cntReg&#45;&gt;op_add_1 -->
<g id="edge5" class="edge">
<title>struct_cluster_Hello_cntReg:out&#45;&gt;op_add_1:in1</title>
<path fill="none" stroke="black" d="M346.5,-141.66C381.37,-141.66 382.91,-105.83 411.27,-98.84"/>
<polygon fill="black" stroke="black" points="411.97,-102.28 421.5,-97.66 411.17,-95.33 411.97,-102.28"/>
</g>
<!-- op_eq_2 -->
<g id="node10" class="node">
<title>op_eq_2</title>
<polygon fill="#d8bfd8" stroke="transparent" points="592,-103.66 592,-153.66 735,-153.66 735,-103.66 592,-103.66"/>
<polygon fill="none" stroke="black" points="592.5,-128.66 592.5,-153.66 675.5,-153.66 675.5,-128.66 592.5,-128.66"/>
<text text-anchor="start" x="627.5" y="-137.46" font-family="Times,serif" font-size="14.00">●</text>
<polygon fill="none" stroke="black" points="675.5,-103.66 675.5,-153.66 712.5,-153.66 712.5,-103.66 675.5,-103.66"/>
<text text-anchor="start" x="680.5" y="-124.96" font-family="Times,serif" font-size="14.00"> eq </text>
<polygon fill="none" stroke="black" points="712.5,-103.66 712.5,-153.66 735.5,-153.66 735.5,-103.66 712.5,-103.66"/>
<text text-anchor="start" x="717.5" y="-124.96" font-family="Times,serif" font-size="14.00">●</text>
<polygon fill="none" stroke="black" points="592.5,-103.66 592.5,-128.66 675.5,-128.66 675.5,-103.66 592.5,-103.66"/>
<text text-anchor="start" x="597.5" y="-112.46" font-family="Times,serif" font-size="14.00">24999999</text>
</g>
<!-- struct_cluster_Hello_cntReg&#45;&gt;op_eq_2 -->
<g id="edge12" class="edge">
<title>struct_cluster_Hello_cntReg:out&#45;&gt;op_eq_2:in1</title>
<path fill="none" stroke="black" d="M346.5,-141.66C451.88,-141.66 480.77,-141.66 581.22,-141.66"/>
<polygon fill="black" stroke="black" points="581.5,-145.16 591.5,-141.66 581.5,-138.16 581.5,-145.16"/>
</g>
<!-- op_eq_4 -->
<g id="node14" class="node">
<title>op_eq_4</title>
<polygon fill="#d8bfd8" stroke="transparent" points="397,-172.66 397,-222.66 540,-222.66 540,-172.66 397,-172.66"/>
<polygon fill="none" stroke="black" points="397.5,-197.66 397.5,-222.66 480.5,-222.66 480.5,-197.66 397.5,-197.66"/>
<text text-anchor="start" x="432.5" y="-206.46" font-family="Times,serif" font-size="14.00">●</text>
<polygon fill="none" stroke="black" points="480.5,-172.66 480.5,-222.66 517.5,-222.66 517.5,-172.66 480.5,-172.66"/>
<text text-anchor="start" x="485.5" y="-193.96" font-family="Times,serif" font-size="14.00"> eq </text>
<polygon fill="none" stroke="black" points="517.5,-172.66 517.5,-222.66 540.5,-222.66 540.5,-172.66 517.5,-172.66"/>
<text text-anchor="start" x="522.5" y="-193.96" font-family="Times,serif" font-size="14.00">●</text>
<polygon fill="none" stroke="black" points="397.5,-172.66 397.5,-197.66 480.5,-197.66 480.5,-172.66 397.5,-172.66"/>
<text text-anchor="start" x="402.5" y="-181.46" font-family="Times,serif" font-size="14.00">24999999</text>
</g>
<!-- struct_cluster_Hello_cntReg&#45;&gt;op_eq_4 -->
<g id="edge6" class="edge">
<title>struct_cluster_Hello_cntReg:out&#45;&gt;op_eq_4:in1</title>
<path fill="none" stroke="black" d="M346.5,-141.66C380.38,-141.66 363.35,-196.87 386.49,-208.52"/>
<polygon fill="black" stroke="black" points="385.99,-211.99 396.5,-210.66 387.45,-205.15 385.99,-211.99"/>
</g>
<!-- struct_cluster_Hello_blkReg -->
<g id="node5" class="node">
<title>struct_cluster_Hello_blkReg</title>
<polygon fill="#ffe4b5" stroke="transparent" points="928,-182.16 928,-207.16 1034,-207.16 1034,-182.16 928,-182.16"/>
<polygon fill="none" stroke="black" points="928,-181.66 928,-206.66 951,-206.66 951,-181.66 928,-181.66"/>
<text text-anchor="start" x="933" y="-190.46" font-family="Times,serif" font-size="14.00">●</text>
<polygon fill="none" stroke="black" points="951,-181.66 951,-206.66 1011,-206.66 1011,-181.66 951,-181.66"/>
<text text-anchor="start" x="956" y="-190.46" font-family="Times,serif" font-size="14.00">blkReg</text>
<polygon fill="none" stroke="black" points="1011,-181.66 1011,-206.66 1034,-206.66 1034,-181.66 1011,-181.66"/>
<text text-anchor="start" x="1016" y="-190.46" font-family="Times,serif" font-size="14.00">●</text>
</g>
<!-- struct_cluster_Hello_blkReg&#45;&gt;cluster_Hello_io_led -->
<g id="edge1" class="edge">
<title>struct_cluster_Hello_blkReg:out&#45;&gt;cluster_Hello_io_led</title>
<path fill="none" stroke="black" d="M1035,-193.66C1053.63,-193.66 1074.15,-191.34 1091.3,-188.74"/>
<polygon fill="black" stroke="black" points="1092.18,-192.14 1101.5,-187.1 1091.07,-185.23 1092.18,-192.14"/>
</g>
<!-- mux_984458810 -->
<g id="node13" class="node">
<title>mux_984458810</title>
<polygon fill="#afeeee" stroke="transparent" points="627.5,-179.66 627.5,-229.66 699.5,-229.66 699.5,-179.66 627.5,-179.66"/>
<polygon fill="none" stroke="black" points="627.5,-204.66 627.5,-229.66 650.5,-229.66 650.5,-204.66 627.5,-204.66"/>
<text text-anchor="start" x="632.5" y="-213.46" font-family="Times,serif" font-size="14.00">●</text>
<polygon fill="none" stroke="black" points="650.5,-179.66 650.5,-229.66 676.5,-229.66 676.5,-179.66 650.5,-179.66"/>
<text text-anchor="start" x="655.5" y="-200.96" font-family="Times,serif" font-size="14.00">a?</text>
<polygon fill="none" stroke="black" points="676.5,-179.66 676.5,-229.66 699.5,-229.66 699.5,-179.66 676.5,-179.66"/>
<text text-anchor="start" x="681.5" y="-200.96" font-family="Times,serif" font-size="14.00">●</text>
<polygon fill="none" stroke="black" points="627.5,-179.66 627.5,-204.66 650.5,-204.66 650.5,-179.66 627.5,-179.66"/>
<text text-anchor="start" x="632.5" y="-188.46" font-family="Times,serif" font-size="14.00">●</text>
</g>
<!-- struct_cluster_Hello_blkReg&#45;&gt;mux_984458810 -->
<g id="edge14" class="edge">
<title>struct_cluster_Hello_blkReg:out&#45;&gt;mux_984458810:in2</title>
<path fill="none" stroke="black" d="M1023,-180.66C1023,-126.35 833.26,-164.35 779,-166.66 772.46,-166.94 678.67,-169.66 648.08,-175.12"/>
<polygon fill="black" stroke="black" points="646.67,-171.91 638.5,-178.66 649.09,-178.48 646.67,-171.91"/>
</g>
<!-- op_not_5 -->
<g id="node15" class="node">
<title>op_not_5</title>
<polygon fill="#d8bfd8" stroke="transparent" points="1086,-223.16 1086,-248.16 1175,-248.16 1175,-223.16 1086,-223.16"/>
<polygon fill="none" stroke="black" points="1086.5,-222.66 1086.5,-247.66 1109.5,-247.66 1109.5,-222.66 1086.5,-222.66"/>
<text text-anchor="start" x="1091.5" y="-231.46" font-family="Times,serif" font-size="14.00">●</text>
<polygon fill="none" stroke="black" points="1109.5,-222.66 1109.5,-247.66 1152.5,-247.66 1152.5,-222.66 1109.5,-222.66"/>
<text text-anchor="start" x="1114.5" y="-231.46" font-family="Times,serif" font-size="14.00"> not </text>
<polygon fill="none" stroke="black" points="1152.5,-222.66 1152.5,-247.66 1175.5,-247.66 1175.5,-222.66 1152.5,-222.66"/>
<text text-anchor="start" x="1157.5" y="-231.46" font-family="Times,serif" font-size="14.00">●</text>
</g>
<!-- struct_cluster_Hello_blkReg&#45;&gt;op_not_5 -->
<g id="edge3" class="edge">
<title>struct_cluster_Hello_blkReg:out&#45;&gt;op_not_5:in1</title>
<path fill="none" stroke="black" d="M1035,-193.66C1059.84,-193.66 1057.93,-223.94 1075.25,-232.45"/>
<polygon fill="black" stroke="black" points="1074.99,-235.98 1085.5,-234.66 1076.46,-229.13 1074.99,-235.98"/>
</g>
<!-- cluster_Hello__T -->
<g id="node6" class="node">
<title>cluster_Hello__T</title>
<polygon fill="none" stroke="black" points="690.5,-81.66 636.5,-81.66 636.5,-45.66 690.5,-45.66 690.5,-81.66"/>
<text text-anchor="middle" x="663.5" y="-59.96" font-family="Times,serif" font-size="14.00">_T</text>
</g>
<!-- op_tail_3 -->
<g id="node11" class="node">
<title>op_tail_3</title>
<polygon fill="#d8bfd8" stroke="transparent" points="787,-29.66 787,-79.66 876,-79.66 876,-29.66 787,-29.66"/>
<polygon fill="none" stroke="black" points="787.5,-54.66 787.5,-79.66 810.5,-79.66 810.5,-54.66 787.5,-54.66"/>
<text text-anchor="start" x="792.5" y="-63.46" font-family="Times,serif" font-size="14.00">●</text>
<polygon fill="none" stroke="black" points="810.5,-29.66 810.5,-79.66 853.5,-79.66 853.5,-29.66 810.5,-29.66"/>
<text text-anchor="start" x="815.5" y="-50.96" font-family="Times,serif" font-size="14.00"> tail </text>
<polygon fill="none" stroke="black" points="853.5,-29.66 853.5,-79.66 876.5,-79.66 876.5,-29.66 853.5,-29.66"/>
<text text-anchor="start" x="858.5" y="-50.96" font-family="Times,serif" font-size="14.00">●</text>
<polygon fill="none" stroke="black" points="787.5,-29.66 787.5,-54.66 810.5,-54.66 810.5,-29.66 787.5,-29.66"/>
<text text-anchor="start" x="794" y="-38.46" font-family="Times,serif" font-size="14.00">1</text>
</g>
<!-- cluster_Hello__T&#45;&gt;op_tail_3 -->
<g id="edge9" class="edge">
<title>cluster_Hello__T&#45;&gt;op_tail_3:in1</title>
<path fill="none" stroke="black" d="M690.67,-65.01C712.86,-66.06 745.85,-67.36 776.29,-67.62"/>
<polygon fill="black" stroke="black" points="776.48,-71.12 786.5,-67.66 776.52,-64.12 776.48,-71.12"/>
</g>
<!-- op_add_1&#45;&gt;cluster_Hello__T -->
<g id="edge11" class="edge">
<title>op_add_1:out&#45;&gt;cluster_Hello__T</title>
<path fill="none" stroke="black" d="M515.5,-84.66C553.67,-84.66 596.85,-77.64 626.49,-71.71"/>
<polygon fill="black" stroke="black" points="627.28,-75.12 636.37,-69.68 625.87,-68.27 627.28,-75.12"/>
</g>
<!-- mux_1762996813&#45;&gt;struct_cluster_Hello_cntReg -->
<g id="edge8" class="edge">
<title>mux_1762996813:out&#45;&gt;struct_cluster_Hello_cntReg:in</title>
<path fill="none" stroke="black" d="M187,-141.66C205.59,-141.66 212.63,-141.66 227.25,-141.66"/>
<polygon fill="black" stroke="black" points="227.5,-145.16 237.5,-141.66 227.5,-138.16 227.5,-145.16"/>
</g>
<!-- mux_618112617 -->
<g id="node9" class="node">
<title>mux_618112617</title>
<polygon fill="#afeeee" stroke="transparent" points="945,-77.66 945,-127.66 1017,-127.66 1017,-77.66 945,-77.66"/>
<polygon fill="none" stroke="black" points="945,-102.66 945,-127.66 968,-127.66 968,-102.66 945,-102.66"/>
<text text-anchor="start" x="951.5" y="-111.46" font-family="Times,serif" font-size="14.00">0</text>
<polygon fill="none" stroke="black" points="968,-77.66 968,-127.66 994,-127.66 994,-77.66 968,-77.66"/>
<text text-anchor="start" x="973" y="-98.96" font-family="Times,serif" font-size="14.00">a?</text>
<polygon fill="none" stroke="black" points="994,-77.66 994,-127.66 1017,-127.66 1017,-77.66 994,-77.66"/>
<text text-anchor="start" x="999" y="-98.96" font-family="Times,serif" font-size="14.00">●</text>
<polygon fill="none" stroke="black" points="945,-77.66 945,-102.66 968,-102.66 968,-77.66 945,-77.66"/>
<text text-anchor="start" x="950" y="-86.46" font-family="Times,serif" font-size="14.00">●</text>
</g>
<!-- mux_618112617&#45;&gt;mux_1762996813 -->
<g id="edge4" class="edge">
<title>mux_618112617:out&#45;&gt;mux_1762996813:in2</title>
<path fill="none" stroke="black" d="M1006,-76.66C1006,-45.99 967.35,-73.22 937,-77.66 912.78,-81.2 908.25,-89.29 884,-92.66 837.78,-99.07 819.96,-115.02 779,-92.66 753.03,-78.48 768.97,-50.84 743,-36.66 604.85,38.76 544.55,-22.6 389,-46.66 272.66,-64.65 133.43,1.54 125.37,-105.49"/>
<polygon fill="black" stroke="black" points="121.86,-105.54 125,-115.66 128.86,-105.79 121.86,-105.54"/>
</g>
<!-- op_eq_2&#45;&gt;mux_618112617 -->
<g id="edge18" class="edge">
<title>op_eq_2:out&#45;&gt;mux_618112617:select</title>
<path fill="none" stroke="black" d="M736.5,-128.66C787.01,-128.66 954.93,-175.62 978.29,-138.57"/>
<polygon fill="black" stroke="black" points="981.74,-139.23 981,-128.66 974.99,-137.38 981.74,-139.23"/>
</g>
<!-- op_tail_3&#45;&gt;mux_618112617 -->
<g id="edge10" class="edge">
<title>op_tail_3:out&#45;&gt;mux_618112617:in2</title>
<path fill="none" stroke="black" d="M877.5,-54.66C907.12,-54.66 910.24,-82.18 933.85,-88.41"/>
<polygon fill="black" stroke="black" points="933.65,-91.92 944,-89.66 934.5,-84.97 933.65,-91.92"/>
</g>
<!-- mux_2001981039&#45;&gt;struct_cluster_Hello_blkReg -->
<g id="edge13" class="edge">
<title>mux_2001981039:out&#45;&gt;struct_cluster_Hello_blkReg:in</title>
<path fill="none" stroke="black" d="M868.5,-204.66C891.24,-204.66 898.56,-196.54 916.96,-194.25"/>
<polygon fill="black" stroke="black" points="917.22,-197.74 927,-193.66 916.81,-190.75 917.22,-197.74"/>
</g>
<!-- mux_984458810&#45;&gt;mux_2001981039 -->
<g id="edge15" class="edge">
<title>mux_984458810:out&#45;&gt;mux_2001981039:in2</title>
<path fill="none" stroke="black" d="M700.5,-204.66C739.05,-204.66 750.43,-193.8 784.31,-191.93"/>
<polygon fill="black" stroke="black" points="784.6,-195.42 794.5,-191.66 784.41,-188.43 784.6,-195.42"/>
</g>
<!-- op_eq_4&#45;&gt;mux_984458810 -->
<g id="edge7" class="edge">
<title>op_eq_4:out&#45;&gt;mux_984458810:select</title>
<path fill="none" stroke="black" d="M541.5,-197.66C564.65,-197.66 635.59,-164.6 657.19,-170.75"/>
<polygon fill="black" stroke="black" points="654.53,-173.02 663.5,-178.66 660,-168.66 654.53,-173.02"/>
</g>
<!-- op_not_5&#45;&gt;mux_984458810 -->
<g id="edge2" class="edge">
<title>op_not_5:out&#45;&gt;mux_984458810:in1</title>
<path fill="none" stroke="black" d="M1164.5,-248.66C1164.5,-252.86 713.68,-258.68 646.76,-236.54"/>
<polygon fill="black" stroke="black" points="648.68,-233.6 638.5,-230.66 644.62,-239.31 648.68,-233.6"/>
</g>
</g>
</svg>
