<?xml version="1.0" encoding="UTF-8" standalone="no"?>
<?xml-stylesheet href="styles.css" type="text/css"?>
<!DOCTYPE svg PUBLIC "-//W3C//DTD SVG 1.1//EN"
 "http://www.w3.org/Graphics/SVG/1.1/DTD/svg11.dtd">
<!-- Generated by graphviz version 2.43.0 (0)
 -->
<!-- Title: Arbiter Pages: 1 -->
<svg width="578pt" height="435pt"
 viewBox="0.00 0.00 578.00 435.00" xmlns="http://www.w3.org/2000/svg" xmlns:xlink="http://www.w3.org/1999/xlink">
<g id="graph0" class="graph" transform="scale(1 1) rotate(0) translate(4 431)">
<title>Arbiter</title>
<polygon fill="white" stroke="transparent" points="-4,4 -4,-431 574,-431 574,4 -4,4"/>
<g id="clust1" class="cluster">
<title>cluster_Arbiter</title>
<polygon fill="#fff8dc" stroke="black" points="8,-8 8,-419 562,-419 562,-8 8,-8"/>
<text text-anchor="middle" x="285" y="-403.8" font-family="Times,serif" font-size="14.00">Arbiter</text>
</g>
<!-- cluster_Arbiter_clock -->
<g id="node1" class="node">
<title>cluster_Arbiter_clock</title>
<polygon fill="#cccccc" stroke="black" points="98,-388 44,-388 44,-352 98,-352 98,-388"/>
<text text-anchor="middle" x="71" y="-366.3" font-family="Times,serif" font-size="14.00">clock</text>
</g>
<!-- cluster_Arbiter_reset -->
<g id="node2" class="node">
<title>cluster_Arbiter_reset</title>
<polygon fill="#cccccc" stroke="black" points="98,-334 44,-334 44,-298 98,-298 98,-334"/>
<text text-anchor="middle" x="71" y="-312.3" font-family="Times,serif" font-size="14.00">reset</text>
</g>
<!-- cluster_Arbiter_io_fifo_valid -->
<g id="node3" class="node">
<title>cluster_Arbiter_io_fifo_valid</title>
<polygon fill="#cccccc" stroke="black" points="121,-216 21,-216 21,-180 121,-180 121,-216"/>
<text text-anchor="middle" x="71" y="-194.3" font-family="Times,serif" font-size="14.00">io_fifo_valid</text>
</g>
<!-- op_and_15 -->
<g id="node13" class="node">
<title>op_and_15</title>
<polygon fill="#d8bfd8" stroke="transparent" points="170,-226 170,-276 262,-276 262,-226 170,-226"/>
<polygon fill="none" stroke="black" points="170,-251 170,-276 193,-276 193,-251 170,-251"/>
<text text-anchor="start" x="175" y="-259.8" font-family="Times,serif" font-size="14.00">●</text>
<polygon fill="none" stroke="black" points="193,-226 193,-276 239,-276 239,-226 193,-226"/>
<text text-anchor="start" x="198" y="-247.3" font-family="Times,serif" font-size="14.00"> and </text>
<polygon fill="none" stroke="black" points="239,-226 239,-276 262,-276 262,-226 239,-226"/>
<text text-anchor="start" x="244" y="-247.3" font-family="Times,serif" font-size="14.00">●</text>
<polygon fill="none" stroke="black" points="170,-226 170,-251 193,-251 193,-226 170,-226"/>
<text text-anchor="start" x="175" y="-234.8" font-family="Times,serif" font-size="14.00">●</text>
</g>
<!-- cluster_Arbiter_io_fifo_valid&#45;&gt;op_and_15 -->
<g id="edge12" class="edge">
<title>cluster_Arbiter_io_fifo_valid&#45;&gt;op_and_15:in1</title>
<path fill="none" stroke="black" d="M98.32,-216.03C119.05,-230.23 146.69,-249.12 160.46,-258.39"/>
<polygon fill="black" stroke="black" points="158.72,-261.43 169,-264 162.56,-255.58 158.72,-261.43"/>
</g>
<!-- op_and_17 -->
<g id="node15" class="node">
<title>op_and_17</title>
<polygon fill="#d8bfd8" stroke="transparent" points="170,-150 170,-200 262,-200 262,-150 170,-150"/>
<polygon fill="none" stroke="black" points="170,-175 170,-200 193,-200 193,-175 170,-175"/>
<text text-anchor="start" x="175" y="-183.8" font-family="Times,serif" font-size="14.00">●</text>
<polygon fill="none" stroke="black" points="193,-150 193,-200 239,-200 239,-150 193,-150"/>
<text text-anchor="start" x="198" y="-171.3" font-family="Times,serif" font-size="14.00"> and </text>
<polygon fill="none" stroke="black" points="239,-150 239,-200 262,-200 262,-150 239,-150"/>
<text text-anchor="start" x="244" y="-171.3" font-family="Times,serif" font-size="14.00">●</text>
<polygon fill="none" stroke="black" points="170,-150 170,-175 193,-175 193,-150 170,-150"/>
<text text-anchor="start" x="175" y="-158.8" font-family="Times,serif" font-size="14.00">●</text>
</g>
<!-- cluster_Arbiter_io_fifo_valid&#45;&gt;op_and_17 -->
<g id="edge5" class="edge">
<title>cluster_Arbiter_io_fifo_valid&#45;&gt;op_and_17:in1</title>
<path fill="none" stroke="black" d="M121.25,-190.95C133.3,-189.64 146.36,-188.56 158.99,-188.16"/>
<polygon fill="black" stroke="black" points="159.06,-191.66 169,-188 158.94,-184.66 159.06,-191.66"/>
</g>
<!-- cluster_Arbiter_io_fifo_data -->
<g id="node4" class="node">
<title>cluster_Arbiter_io_fifo_data</title>
<polygon fill="#cccccc" stroke="black" points="119.5,-280 22.5,-280 22.5,-244 119.5,-244 119.5,-280"/>
<text text-anchor="middle" x="71" y="-258.3" font-family="Times,serif" font-size="14.00">io_fifo_data</text>
</g>
<!-- cluster_Arbiter_io_pe0_data -->
<g id="node9" class="node">
<title>cluster_Arbiter_io_pe0_data</title>
<polygon fill="#e0ffff" stroke="black" points="266.5,-334 165.5,-334 165.5,-298 266.5,-298 266.5,-334"/>
<text text-anchor="middle" x="216" y="-312.3" font-family="Times,serif" font-size="14.00">io_pe0_data</text>
</g>
<!-- cluster_Arbiter_io_fifo_data&#45;&gt;cluster_Arbiter_io_pe0_data -->
<g id="edge14" class="edge">
<title>cluster_Arbiter_io_fifo_data&#45;&gt;cluster_Arbiter_io_pe0_data</title>
<path fill="none" stroke="black" d="M119.62,-279.98C131.79,-284.58 145,-289.57 157.61,-294.33"/>
<polygon fill="black" stroke="black" points="156.51,-297.65 167.1,-297.91 158.98,-291.11 156.51,-297.65"/>
</g>
<!-- cluster_Arbiter_io_pe1_data -->
<g id="node11" class="node">
<title>cluster_Arbiter_io_pe1_data</title>
<polygon fill="#e0ffff" stroke="black" points="266.5,-388 165.5,-388 165.5,-352 266.5,-352 266.5,-388"/>
<text text-anchor="middle" x="216" y="-366.3" font-family="Times,serif" font-size="14.00">io_pe1_data</text>
</g>
<!-- cluster_Arbiter_io_fifo_data&#45;&gt;cluster_Arbiter_io_pe1_data -->
<g id="edge3" class="edge">
<title>cluster_Arbiter_io_fifo_data&#45;&gt;cluster_Arbiter_io_pe1_data</title>
<path fill="none" stroke="black" d="M113.82,-280.08C118.15,-282.77 122.31,-285.74 126,-289 147.62,-308.09 140.45,-323.83 162,-343 163.13,-344.01 164.31,-344.99 165.52,-345.94"/>
<polygon fill="black" stroke="black" points="163.76,-348.98 173.95,-351.85 167.77,-343.24 163.76,-348.98"/>
</g>
<!-- cluster_Arbiter_io_pe0_ready -->
<g id="node5" class="node">
<title>cluster_Arbiter_io_pe0_ready</title>
<polygon fill="#cccccc" stroke="black" points="126,-127 16,-127 16,-91 126,-91 126,-127"/>
<text text-anchor="middle" x="71" y="-105.3" font-family="Times,serif" font-size="14.00">io_pe0_ready</text>
</g>
<!-- op_or_14 -->
<g id="node12" class="node">
<title>op_or_14</title>
<polygon fill="#d8bfd8" stroke="transparent" points="175.5,-20 175.5,-70 256.5,-70 256.5,-20 175.5,-20"/>
<polygon fill="none" stroke="black" points="176,-45 176,-70 199,-70 199,-45 176,-45"/>
<text text-anchor="start" x="181" y="-53.8" font-family="Times,serif" font-size="14.00">●</text>
<polygon fill="none" stroke="black" points="199,-20 199,-70 234,-70 234,-20 199,-20"/>
<text text-anchor="start" x="204" y="-41.3" font-family="Times,serif" font-size="14.00"> or </text>
<polygon fill="none" stroke="black" points="234,-20 234,-70 257,-70 257,-20 234,-20"/>
<text text-anchor="start" x="239" y="-41.3" font-family="Times,serif" font-size="14.00">●</text>
<polygon fill="none" stroke="black" points="176,-20 176,-45 199,-45 199,-20 176,-20"/>
<text text-anchor="start" x="181" y="-28.8" font-family="Times,serif" font-size="14.00">●</text>
</g>
<!-- cluster_Arbiter_io_pe0_ready&#45;&gt;op_or_14 -->
<g id="edge10" class="edge">
<title>cluster_Arbiter_io_pe0_ready&#45;&gt;op_or_14:in1</title>
<path fill="none" stroke="black" d="M101.19,-90.88C121.29,-78.97 147.38,-64.71 164.64,-59.78"/>
<polygon fill="black" stroke="black" points="165.74,-63.14 175,-58 164.55,-56.24 165.74,-63.14"/>
</g>
<!-- cluster_Arbiter_io_pe0_ready&#45;&gt;op_and_15 -->
<g id="edge7" class="edge">
<title>cluster_Arbiter_io_pe0_ready&#45;&gt;op_and_15:in2</title>
<path fill="none" stroke="black" d="M87.87,-127.14C98.65,-139.49 113.21,-156.2 126,-171 142.07,-189.6 143.4,-196.92 162,-213 165.66,-216.16 170.23,-216.73 173.97,-217.62"/>
<polygon fill="black" stroke="black" points="171.57,-220.17 181,-225 176.64,-215.34 171.57,-220.17"/>
</g>
<!-- op_not_18 -->
<g id="node16" class="node">
<title>op_not_18</title>
<polygon fill="#d8bfd8" stroke="transparent" points="171.5,-97.5 171.5,-122.5 260.5,-122.5 260.5,-97.5 171.5,-97.5"/>
<polygon fill="none" stroke="black" points="172,-97 172,-122 195,-122 195,-97 172,-97"/>
<text text-anchor="start" x="177" y="-105.8" font-family="Times,serif" font-size="14.00">●</text>
<polygon fill="none" stroke="black" points="195,-97 195,-122 238,-122 238,-97 195,-97"/>
<text text-anchor="start" x="200" y="-105.8" font-family="Times,serif" font-size="14.00"> not </text>
<polygon fill="none" stroke="black" points="238,-97 238,-122 261,-122 261,-97 238,-97"/>
<text text-anchor="start" x="243" y="-105.8" font-family="Times,serif" font-size="14.00">●</text>
</g>
<!-- cluster_Arbiter_io_pe0_ready&#45;&gt;op_not_18 -->
<g id="edge8" class="edge">
<title>cluster_Arbiter_io_pe0_ready&#45;&gt;op_not_18:in1</title>
<path fill="none" stroke="black" d="M126.21,-109C137.46,-109 149.41,-109 160.97,-109"/>
<polygon fill="black" stroke="black" points="161,-112.5 171,-109 161,-105.5 161,-112.5"/>
</g>
<!-- cluster_Arbiter_io_pe1_ready -->
<g id="node6" class="node">
<title>cluster_Arbiter_io_pe1_ready</title>
<polygon fill="#cccccc" stroke="black" points="126,-63 16,-63 16,-27 126,-27 126,-63"/>
<text text-anchor="middle" x="71" y="-41.3" font-family="Times,serif" font-size="14.00">io_pe1_ready</text>
</g>
<!-- cluster_Arbiter_io_pe1_ready&#45;&gt;op_or_14 -->
<g id="edge6" class="edge">
<title>cluster_Arbiter_io_pe1_ready&#45;&gt;op_or_14:in2</title>
<path fill="none" stroke="black" d="M126.1,-35.59C138.5,-33.98 151.85,-32.68 164.76,-32.2"/>
<polygon fill="black" stroke="black" points="165.07,-35.69 175,-32 164.93,-28.69 165.07,-35.69"/>
</g>
<!-- cluster_Arbiter_io_pe1_ready&#45;&gt;op_and_17 -->
<g id="edge13" class="edge">
<title>cluster_Arbiter_io_pe1_ready&#45;&gt;op_and_17:in2</title>
<path fill="none" stroke="black" d="M102.77,-63.04C110.82,-68.55 119.16,-75.02 126,-82 146.44,-102.88 141.17,-116.51 162,-137 165.45,-140.39 170.01,-140.97 173.81,-141.8"/>
<polygon fill="black" stroke="black" points="171.46,-144.4 181,-149 176.41,-139.45 171.46,-144.4"/>
</g>
<!-- cluster_Arbiter_io_fifo_ready -->
<g id="node7" class="node">
<title>cluster_Arbiter_io_fifo_ready</title>
<polygon fill="#e0ffff" stroke="black" points="413,-63 307,-63 307,-27 413,-27 413,-63"/>
<text text-anchor="middle" x="360" y="-41.3" font-family="Times,serif" font-size="14.00">io_fifo_ready</text>
</g>
<!-- cluster_Arbiter_io_pe0_valid -->
<g id="node8" class="node">
<title>cluster_Arbiter_io_pe0_valid</title>
<polygon fill="#e0ffff" stroke="black" points="412,-269 308,-269 308,-233 412,-233 412,-269"/>
<text text-anchor="middle" x="360" y="-247.3" font-family="Times,serif" font-size="14.00">io_pe0_valid</text>
</g>
<!-- cluster_Arbiter_io_pe1_valid -->
<g id="node10" class="node">
<title>cluster_Arbiter_io_pe1_valid</title>
<polygon fill="#e0ffff" stroke="black" points="554,-160 450,-160 450,-124 554,-124 554,-160"/>
<text text-anchor="middle" x="502" y="-138.3" font-family="Times,serif" font-size="14.00">io_pe1_valid</text>
</g>
<!-- op_or_14&#45;&gt;cluster_Arbiter_io_fifo_ready -->
<g id="edge1" class="edge">
<title>op_or_14:out&#45;&gt;cluster_Arbiter_io_fifo_ready</title>
<path fill="none" stroke="black" d="M258,-45C270.52,-45 283.92,-45 296.72,-45"/>
<polygon fill="black" stroke="black" points="296.84,-48.5 306.84,-45 296.84,-41.5 296.84,-48.5"/>
</g>
<!-- op_and_15&#45;&gt;cluster_Arbiter_io_pe0_valid -->
<g id="edge9" class="edge">
<title>op_and_15:out&#45;&gt;cluster_Arbiter_io_pe0_valid</title>
<path fill="none" stroke="black" d="M263,-251C274.1,-251 285.93,-251 297.34,-251"/>
<polygon fill="black" stroke="black" points="297.68,-254.5 307.68,-251 297.68,-247.5 297.68,-254.5"/>
</g>
<!-- op_and_16 -->
<g id="node14" class="node">
<title>op_and_16</title>
<polygon fill="#d8bfd8" stroke="transparent" points="314,-117 314,-167 406,-167 406,-117 314,-117"/>
<polygon fill="none" stroke="black" points="314,-142 314,-167 337,-167 337,-142 314,-142"/>
<text text-anchor="start" x="319" y="-150.8" font-family="Times,serif" font-size="14.00">●</text>
<polygon fill="none" stroke="black" points="337,-117 337,-167 383,-167 383,-117 337,-117"/>
<text text-anchor="start" x="342" y="-138.3" font-family="Times,serif" font-size="14.00"> and </text>
<polygon fill="none" stroke="black" points="383,-117 383,-167 406,-167 406,-117 383,-117"/>
<text text-anchor="start" x="388" y="-138.3" font-family="Times,serif" font-size="14.00">●</text>
<polygon fill="none" stroke="black" points="314,-117 314,-142 337,-142 337,-117 314,-117"/>
<text text-anchor="start" x="319" y="-125.8" font-family="Times,serif" font-size="14.00">●</text>
</g>
<!-- op_and_16&#45;&gt;cluster_Arbiter_io_pe1_valid -->
<g id="edge4" class="edge">
<title>op_and_16:out&#45;&gt;cluster_Arbiter_io_pe1_valid</title>
<path fill="none" stroke="black" d="M407,-142C417.51,-142 428.69,-142 439.52,-142"/>
<polygon fill="black" stroke="black" points="439.78,-145.5 449.78,-142 439.77,-138.5 439.78,-145.5"/>
</g>
<!-- op_and_17&#45;&gt;op_and_16 -->
<g id="edge2" class="edge">
<title>op_and_17:out&#45;&gt;op_and_16:in1</title>
<path fill="none" stroke="black" d="M263,-175C283.01,-175 287.78,-161.02 302.79,-156.44"/>
<polygon fill="black" stroke="black" points="303.59,-159.86 313,-155 302.61,-152.93 303.59,-159.86"/>
</g>
<!-- op_not_18&#45;&gt;op_and_16 -->
<g id="edge11" class="edge">
<title>op_not_18:out&#45;&gt;op_and_16:in2</title>
<path fill="none" stroke="black" d="M262,-109C282.54,-109 287.39,-123.24 303.03,-127.69"/>
<polygon fill="black" stroke="black" points="302.63,-131.16 313,-129 303.54,-124.22 302.63,-131.16"/>
</g>
</g>
</svg>
