<?xml version="1.0" encoding="UTF-8" standalone="no"?>
<?xml-stylesheet href="styles.css" type="text/css"?>
<!DOCTYPE svg PUBLIC "-//W3C//DTD SVG 1.1//EN"
 "http://www.w3.org/Graphics/SVG/1.1/DTD/svg11.dtd">
<!-- Generated by graphviz version 2.43.0 (0)
 -->
<!-- Title: FindMax Pages: 1 -->
<svg width="704pt" height="283pt"
 viewBox="0.00 0.00 704.00 282.97" xmlns="http://www.w3.org/2000/svg" xmlns:xlink="http://www.w3.org/1999/xlink">
<g id="graph0" class="graph" transform="scale(1 1) rotate(0) translate(4 278.97)">
<title>FindMax</title>
<polygon fill="white" stroke="transparent" points="-4,4 -4,-278.97 700,-278.97 700,4 -4,4"/>
<g id="clust1" class="cluster">
<title>cluster_FindMax</title>
<polygon fill="#fff8dc" stroke="black" points="8,-55.97 8,-266.97 688,-266.97 688,-55.97 8,-55.97"/>
<text text-anchor="middle" x="348" y="-251.77" font-family="Times,serif" font-size="14.00">FindMax</text>
</g>
<!-- cluster_FindMax_clock -->
<g id="node1" class="node">
<title>cluster_FindMax_clock</title>
<polygon fill="#cccccc" stroke="black" points="70,-213.97 16,-213.97 16,-177.97 70,-177.97 70,-213.97"/>
<text text-anchor="middle" x="43" y="-192.27" font-family="Times,serif" font-size="14.00">clock</text>
</g>
<!-- cluster_FindMax_reset -->
<g id="node2" class="node">
<title>cluster_FindMax_reset</title>
<polygon fill="#cccccc" stroke="black" points="70,-124.97 16,-124.97 16,-88.97 70,-88.97 70,-124.97"/>
<text text-anchor="middle" x="43" y="-103.27" font-family="Times,serif" font-size="14.00">reset</text>
</g>
<!-- mux_1699047765 -->
<g id="node8" class="node">
<title>mux_1699047765</title>
<polygon fill="#afeeee" stroke="transparent" points="114,-81.97 114,-131.97 186,-131.97 186,-81.97 114,-81.97"/>
<polygon fill="none" stroke="black" points="114,-106.97 114,-131.97 137,-131.97 137,-106.97 114,-106.97"/>
<text text-anchor="start" x="120.5" y="-115.77" font-family="Times,serif" font-size="14.00">0</text>
<polygon fill="none" stroke="black" points="137,-81.97 137,-131.97 163,-131.97 163,-81.97 137,-81.97"/>
<text text-anchor="start" x="142" y="-103.27" font-family="Times,serif" font-size="14.00">a?</text>
<polygon fill="none" stroke="black" points="163,-81.97 163,-131.97 186,-131.97 186,-81.97 163,-81.97"/>
<text text-anchor="start" x="168" y="-103.27" font-family="Times,serif" font-size="14.00">●</text>
<polygon fill="none" stroke="black" points="114,-81.97 114,-106.97 137,-106.97 137,-81.97 114,-81.97"/>
<text text-anchor="start" x="119" y="-90.77" font-family="Times,serif" font-size="14.00">●</text>
</g>
<!-- cluster_FindMax_reset&#45;&gt;mux_1699047765 -->
<g id="edge2" class="edge">
<title>cluster_FindMax_reset&#45;&gt;mux_1699047765:select</title>
<path fill="none" stroke="black" d="M70.2,-90.21C97.67,-73.92 138.16,-53.97 147.86,-71.19"/>
<polygon fill="black" stroke="black" points="144.44,-71.95 150,-80.97 151.28,-70.45 144.44,-71.95"/>
</g>
<!-- cluster_FindMax_io_in -->
<g id="node3" class="node">
<title>cluster_FindMax_io_in</title>
<polygon fill="#cccccc" stroke="black" points="308.5,-226.97 254.5,-226.97 254.5,-190.97 308.5,-190.97 308.5,-226.97"/>
<text text-anchor="middle" x="281.5" y="-205.27" font-family="Times,serif" font-size="14.00">io_in</text>
</g>
<!-- op_gt_7 -->
<g id="node7" class="node">
<title>op_gt_7</title>
<polygon fill="#d8bfd8" stroke="transparent" points="377,-161.97 377,-211.97 458,-211.97 458,-161.97 377,-161.97"/>
<polygon fill="none" stroke="black" points="377.5,-186.97 377.5,-211.97 400.5,-211.97 400.5,-186.97 377.5,-186.97"/>
<text text-anchor="start" x="382.5" y="-195.77" font-family="Times,serif" font-size="14.00">●</text>
<polygon fill="none" stroke="black" points="400.5,-161.97 400.5,-211.97 435.5,-211.97 435.5,-161.97 400.5,-161.97"/>
<text text-anchor="start" x="405.5" y="-183.27" font-family="Times,serif" font-size="14.00"> gt </text>
<polygon fill="none" stroke="black" points="435.5,-161.97 435.5,-211.97 458.5,-211.97 458.5,-161.97 435.5,-161.97"/>
<text text-anchor="start" x="440.5" y="-183.27" font-family="Times,serif" font-size="14.00">●</text>
<polygon fill="none" stroke="black" points="377.5,-161.97 377.5,-186.97 400.5,-186.97 400.5,-161.97 377.5,-161.97"/>
<text text-anchor="start" x="382.5" y="-170.77" font-family="Times,serif" font-size="14.00">●</text>
</g>
<!-- cluster_FindMax_io_in&#45;&gt;op_gt_7 -->
<g id="edge7" class="edge">
<title>cluster_FindMax_io_in&#45;&gt;op_gt_7:in1</title>
<path fill="none" stroke="black" d="M308.77,-205.1C324.87,-203.01 346.19,-200.74 366.39,-200.13"/>
<polygon fill="black" stroke="black" points="366.56,-203.63 376.5,-199.97 366.45,-196.63 366.56,-203.63"/>
</g>
<!-- mux_1302135895 -->
<g id="node9" class="node">
<title>mux_1302135895</title>
<polygon fill="#afeeee" stroke="transparent" points="600,-100.97 600,-150.97 672,-150.97 672,-100.97 600,-100.97"/>
<polygon fill="none" stroke="black" points="600,-125.97 600,-150.97 623,-150.97 623,-125.97 600,-125.97"/>
<text text-anchor="start" x="605" y="-134.77" font-family="Times,serif" font-size="14.00">●</text>
<polygon fill="none" stroke="black" points="623,-100.97 623,-150.97 649,-150.97 649,-100.97 623,-100.97"/>
<text text-anchor="start" x="628" y="-122.27" font-family="Times,serif" font-size="14.00">a?</text>
<polygon fill="none" stroke="black" points="649,-100.97 649,-150.97 672,-150.97 672,-100.97 649,-100.97"/>
<text text-anchor="start" x="654" y="-122.27" font-family="Times,serif" font-size="14.00">●</text>
<polygon fill="none" stroke="black" points="600,-100.97 600,-125.97 623,-125.97 623,-100.97 600,-100.97"/>
<text text-anchor="start" x="605" y="-109.77" font-family="Times,serif" font-size="14.00">●</text>
</g>
<!-- cluster_FindMax_io_in&#45;&gt;mux_1302135895 -->
<g id="edge8" class="edge">
<title>cluster_FindMax_io_in&#45;&gt;mux_1302135895:in1</title>
<path fill="none" stroke="black" d="M308.55,-215.44C384.05,-232.83 598.39,-272.22 610.47,-161.99"/>
<polygon fill="black" stroke="black" points="613.96,-162.14 611,-151.97 606.97,-161.77 613.96,-162.14"/>
</g>
<!-- cluster_FindMax_io_max -->
<g id="node4" class="node">
<title>cluster_FindMax_io_max</title>
<polygon fill="#e0ffff" stroke="black" points="450.5,-139.97 384.5,-139.97 384.5,-103.97 450.5,-103.97 450.5,-139.97"/>
<text text-anchor="middle" x="417.5" y="-118.27" font-family="Times,serif" font-size="14.00">io_max</text>
</g>
<!-- struct_cluster_FindMax_max -->
<g id="node5" class="node">
<title>struct_cluster_FindMax_max</title>
<polygon fill="#ffe4b5" stroke="transparent" points="238,-103.47 238,-128.47 325,-128.47 325,-103.47 238,-103.47"/>
<polygon fill="none" stroke="black" points="238.5,-102.97 238.5,-127.97 261.5,-127.97 261.5,-102.97 238.5,-102.97"/>
<text text-anchor="start" x="243.5" y="-111.77" font-family="Times,serif" font-size="14.00">●</text>
<polygon fill="none" stroke="black" points="261.5,-102.97 261.5,-127.97 302.5,-127.97 302.5,-102.97 261.5,-102.97"/>
<text text-anchor="start" x="266.5" y="-111.77" font-family="Times,serif" font-size="14.00">max</text>
<polygon fill="none" stroke="black" points="302.5,-102.97 302.5,-127.97 325.5,-127.97 325.5,-102.97 302.5,-102.97"/>
<text text-anchor="start" x="307.5" y="-111.77" font-family="Times,serif" font-size="14.00">●</text>
</g>
<!-- struct_cluster_FindMax_max&#45;&gt;cluster_FindMax_io_max -->
<g id="edge3" class="edge">
<title>struct_cluster_FindMax_max:out&#45;&gt;cluster_FindMax_io_max</title>
<path fill="none" stroke="black" d="M326.5,-114.97C342.16,-114.97 359.31,-116.04 374.4,-117.34"/>
<polygon fill="black" stroke="black" points="374.19,-120.83 384.47,-118.27 374.84,-113.86 374.19,-120.83"/>
</g>
<!-- struct_cluster_FindMax_max&#45;&gt;op_gt_7 -->
<g id="edge4" class="edge">
<title>struct_cluster_FindMax_max:out&#45;&gt;op_gt_7:in2</title>
<path fill="none" stroke="black" d="M326.5,-114.97C356.98,-114.97 345.69,-161.36 366.71,-171.87"/>
<polygon fill="black" stroke="black" points="365.99,-175.3 376.5,-173.97 367.46,-168.45 365.99,-175.3"/>
</g>
<!-- struct_cluster_FindMax_max&#45;&gt;mux_1302135895 -->
<g id="edge6" class="edge">
<title>struct_cluster_FindMax_max:out&#45;&gt;mux_1302135895:in2</title>
<path fill="none" stroke="black" d="M326.5,-114.97C347.38,-114.97 348.63,-99.52 369,-94.97 465.65,-73.37 494.51,-110.28 588.74,-112.83"/>
<polygon fill="black" stroke="black" points="588.95,-116.34 599,-112.97 589.05,-109.34 588.95,-116.34"/>
</g>
<!-- cluster_FindMax__T -->
<g id="node6" class="node">
<title>cluster_FindMax__T</title>
<polygon fill="none" stroke="black" points="556,-172.97 502,-172.97 502,-136.97 556,-136.97 556,-172.97"/>
<text text-anchor="middle" x="529" y="-151.27" font-family="Times,serif" font-size="14.00">_T</text>
</g>
<!-- cluster_FindMax__T&#45;&gt;mux_1302135895 -->
<g id="edge10" class="edge">
<title>cluster_FindMax__T&#45;&gt;mux_1302135895:select</title>
<path fill="none" stroke="black" d="M556.2,-164.27C583.79,-172.82 624.53,-181.44 633.99,-161.78"/>
<polygon fill="black" stroke="black" points="637.42,-162.47 636,-151.97 630.56,-161.06 637.42,-162.47"/>
</g>
<!-- op_gt_7&#45;&gt;cluster_FindMax__T -->
<g id="edge5" class="edge">
<title>op_gt_7:out&#45;&gt;cluster_FindMax__T</title>
<path fill="none" stroke="black" d="M459.5,-186.97C471.38,-186.97 483.42,-182.97 494.02,-177.8"/>
<polygon fill="black" stroke="black" points="495.77,-180.84 502.93,-173.03 492.46,-174.67 495.77,-180.84"/>
</g>
<!-- mux_1699047765&#45;&gt;struct_cluster_FindMax_max -->
<g id="edge1" class="edge">
<title>mux_1699047765:out&#45;&gt;struct_cluster_FindMax_max:in</title>
<path fill="none" stroke="black" d="M187,-106.97C205.82,-106.97 212.52,-112.46 227.17,-114.34"/>
<polygon fill="black" stroke="black" points="227.31,-117.86 237.5,-114.97 227.73,-110.87 227.31,-117.86"/>
</g>
<!-- mux_1302135895&#45;&gt;mux_1699047765 -->
<g id="edge9" class="edge">
<title>mux_1302135895:out&#45;&gt;mux_1699047765:in2</title>
<path fill="none" stroke="black" d="M661,-99.97C661,15.72 155.95,37.02 126.35,-70.85"/>
<polygon fill="black" stroke="black" points="122.86,-70.6 125,-80.97 129.79,-71.52 122.86,-70.6"/>
</g>
</g>
</svg>
