<?xml version="1.0" encoding="UTF-8" standalone="no"?>
<?xml-stylesheet href="styles.css" type="text/css"?>
<!DOCTYPE svg PUBLIC "-//W3C//DTD SVG 1.1//EN"
 "http://www.w3.org/Graphics/SVG/1.1/DTD/svg11.dtd">
<!-- Generated by graphviz version 2.43.0 (0)
 -->
<!-- Title: MyModule Pages: 1 -->
<svg width="189pt" height="207pt"
 viewBox="0.00 0.00 189.00 207.00" xmlns="http://www.w3.org/2000/svg" xmlns:xlink="http://www.w3.org/1999/xlink">
<g id="graph0" class="graph" transform="scale(1 1) rotate(0) translate(4 203)">
<title>MyModule</title>
<polygon fill="white" stroke="transparent" points="-4,4 -4,-203 185,-203 185,4 -4,4"/>
<g id="clust1" class="cluster">
<title>cluster_MyModule</title>
<polygon fill="#fff8dc" stroke="black" points="8,-8 8,-191 173,-191 173,-8 8,-8"/>
<text text-anchor="middle" x="90.5" y="-175.8" font-family="Times,serif" font-size="14.00">MyModule</text>
</g>
<!-- cluster_MyModule_clock -->
<g id="node1" class="node">
<title>cluster_MyModule_clock</title>
<polygon fill="#cccccc" stroke="black" points="70,-160 16,-160 16,-124 70,-124 70,-160"/>
<text text-anchor="middle" x="43" y="-138.3" font-family="Times,serif" font-size="14.00">clock</text>
</g>
<!-- cluster_MyModule_reset -->
<g id="node2" class="node">
<title>cluster_MyModule_reset</title>
<polygon fill="#cccccc" stroke="black" points="70,-106 16,-106 16,-70 70,-70 70,-106"/>
<text text-anchor="middle" x="43" y="-84.3" font-family="Times,serif" font-size="14.00">reset</text>
</g>
<!-- cluster_MyModule_io_in -->
<g id="node3" class="node">
<title>cluster_MyModule_io_in</title>
<polygon fill="#cccccc" stroke="black" points="70,-52 16,-52 16,-16 70,-16 70,-52"/>
<text text-anchor="middle" x="43" y="-30.3" font-family="Times,serif" font-size="14.00">io_in</text>
</g>
<!-- cluster_MyModule_io_out -->
<g id="node4" class="node">
<title>cluster_MyModule_io_out</title>
<polygon fill="#e0ffff" stroke="black" points="165,-52 106,-52 106,-16 165,-16 165,-52"/>
<text text-anchor="middle" x="135.5" y="-30.3" font-family="Times,serif" font-size="14.00">io_out</text>
</g>
<!-- cluster_MyModule_io_in&#45;&gt;cluster_MyModule_io_out -->
<g id="edge1" class="edge">
<title>cluster_MyModule_io_in&#45;&gt;cluster_MyModule_io_out</title>
<path fill="none" stroke="black" d="M70.18,-34C78.12,-34 87.02,-34 95.61,-34"/>
<polygon fill="black" stroke="black" points="95.85,-37.5 105.85,-34 95.85,-30.5 95.85,-37.5"/>
</g>
</g>
</svg>
