<?xml version="1.0" encoding="UTF-8" standalone="no"?>
<?xml-stylesheet href="styles.css" type="text/css"?>
<!DOCTYPE svg PUBLIC "-//W3C//DTD SVG 1.1//EN"
 "http://www.w3.org/Graphics/SVG/1.1/DTD/svg11.dtd">
<!-- Generated by graphviz version 2.43.0 (0)
 -->
<!-- Title: RegNextModule Pages: 1 -->
<svg width="705pt" height="207pt"
 viewBox="0.00 0.00 705.00 207.00" xmlns="http://www.w3.org/2000/svg" xmlns:xlink="http://www.w3.org/1999/xlink">
<g id="graph0" class="graph" transform="scale(1 1) rotate(0) translate(4 203)">
<title>RegNextModule</title>
<polygon fill="white" stroke="transparent" points="-4,4 -4,-203 701,-203 701,4 -4,4"/>
<g id="clust1" class="cluster">
<title>cluster_RegNextModule</title>
<polygon fill="#fff8dc" stroke="black" points="8,-8 8,-191 689,-191 689,-8 8,-8"/>
<text text-anchor="middle" x="348.5" y="-175.8" font-family="Times,serif" font-size="14.00">RegNextModule</text>
</g>
<!-- cluster_RegNextModule_clock -->
<g id="node1" class="node">
<title>cluster_RegNextModule_clock</title>
<polygon fill="#cccccc" stroke="black" points="70,-160 16,-160 16,-124 70,-124 70,-160"/>
<text text-anchor="middle" x="43" y="-138.3" font-family="Times,serif" font-size="14.00">clock</text>
</g>
<!-- cluster_RegNextModule_reset -->
<g id="node2" class="node">
<title>cluster_RegNextModule_reset</title>
<polygon fill="#cccccc" stroke="black" points="70,-106 16,-106 16,-70 70,-70 70,-106"/>
<text text-anchor="middle" x="43" y="-84.3" font-family="Times,serif" font-size="14.00">reset</text>
</g>
<!-- cluster_RegNextModule_io_in -->
<g id="node3" class="node">
<title>cluster_RegNextModule_io_in</title>
<polygon fill="#cccccc" stroke="black" points="70,-52 16,-52 16,-16 70,-16 70,-52"/>
<text text-anchor="middle" x="43" y="-30.3" font-family="Times,serif" font-size="14.00">io_in</text>
</g>
<!-- op_add_3 -->
<g id="node6" class="node">
<title>op_add_3</title>
<polygon fill="#d8bfd8" stroke="transparent" points="114,-26 114,-76 206,-76 206,-26 114,-26"/>
<polygon fill="none" stroke="black" points="114,-51 114,-76 137,-76 137,-51 114,-51"/>
<text text-anchor="start" x="119" y="-59.8" font-family="Times,serif" font-size="14.00">●</text>
<polygon fill="none" stroke="black" points="137,-26 137,-76 183,-76 183,-26 137,-26"/>
<text text-anchor="start" x="142" y="-47.3" font-family="Times,serif" font-size="14.00"> add </text>
<polygon fill="none" stroke="black" points="183,-26 183,-76 206,-76 206,-26 183,-26"/>
<text text-anchor="start" x="188" y="-47.3" font-family="Times,serif" font-size="14.00">●</text>
<polygon fill="none" stroke="black" points="114,-26 114,-51 137,-51 137,-26 114,-26"/>
<text text-anchor="start" x="120.5" y="-34.8" font-family="Times,serif" font-size="14.00">1</text>
</g>
<!-- cluster_RegNextModule_io_in&#45;&gt;op_add_3 -->
<g id="edge5" class="edge">
<title>cluster_RegNextModule_io_in&#45;&gt;op_add_3:in1</title>
<path fill="none" stroke="black" d="M70.07,-51.28C79.71,-56.44 91.13,-61.23 102.76,-63.13"/>
<polygon fill="black" stroke="black" points="102.74,-66.64 113,-64 103.33,-59.67 102.74,-66.64"/>
</g>
<!-- cluster_RegNextModule_io_out -->
<g id="node4" class="node">
<title>cluster_RegNextModule_io_out</title>
<polygon fill="#e0ffff" stroke="black" points="681,-63 622,-63 622,-27 681,-27 681,-63"/>
<text text-anchor="middle" x="651.5" y="-41.3" font-family="Times,serif" font-size="14.00">io_out</text>
</g>
<!-- cluster_RegNextModule__T -->
<g id="node5" class="node">
<title>cluster_RegNextModule__T</title>
<polygon fill="none" stroke="black" points="304,-72 250,-72 250,-36 304,-36 304,-72"/>
<text text-anchor="middle" x="277" y="-50.3" font-family="Times,serif" font-size="14.00">_T</text>
</g>
<!-- op_tail_4 -->
<g id="node8" class="node">
<title>op_tail_4</title>
<polygon fill="#d8bfd8" stroke="transparent" points="348,-20 348,-70 437,-70 437,-20 348,-20"/>
<polygon fill="none" stroke="black" points="348.5,-45 348.5,-70 371.5,-70 371.5,-45 348.5,-45"/>
<text text-anchor="start" x="353.5" y="-53.8" font-family="Times,serif" font-size="14.00">●</text>
<polygon fill="none" stroke="black" points="371.5,-20 371.5,-70 414.5,-70 414.5,-20 371.5,-20"/>
<text text-anchor="start" x="376.5" y="-41.3" font-family="Times,serif" font-size="14.00"> tail </text>
<polygon fill="none" stroke="black" points="414.5,-20 414.5,-70 437.5,-70 437.5,-20 414.5,-20"/>
<text text-anchor="start" x="419.5" y="-41.3" font-family="Times,serif" font-size="14.00">●</text>
<polygon fill="none" stroke="black" points="348.5,-20 348.5,-45 371.5,-45 371.5,-20 348.5,-20"/>
<text text-anchor="start" x="355" y="-28.8" font-family="Times,serif" font-size="14.00">1</text>
</g>
<!-- cluster_RegNextModule__T&#45;&gt;op_tail_4 -->
<g id="edge4" class="edge">
<title>cluster_RegNextModule__T&#45;&gt;op_tail_4:in1</title>
<path fill="none" stroke="black" d="M304.05,-56.21C314.03,-56.92 325.77,-57.59 337.18,-57.87"/>
<polygon fill="black" stroke="black" points="337.46,-61.37 347.5,-58 337.55,-54.37 337.46,-61.37"/>
</g>
<!-- op_add_3&#45;&gt;cluster_RegNextModule__T -->
<g id="edge3" class="edge">
<title>op_add_3:out&#45;&gt;cluster_RegNextModule__T</title>
<path fill="none" stroke="black" d="M207,-51C217.61,-51 229.13,-51.36 239.67,-51.83"/>
<polygon fill="black" stroke="black" points="239.64,-55.33 249.8,-52.32 239.98,-48.34 239.64,-55.33"/>
</g>
<!-- struct_cluster_RegNextModule_REG -->
<g id="node7" class="node">
<title>struct_cluster_RegNextModule_REG</title>
<polygon fill="#ffe4b5" stroke="transparent" points="489,-33.5 489,-58.5 578,-58.5 578,-33.5 489,-33.5"/>
<polygon fill="none" stroke="black" points="489.5,-33 489.5,-58 512.5,-58 512.5,-33 489.5,-33"/>
<text text-anchor="start" x="494.5" y="-41.8" font-family="Times,serif" font-size="14.00">●</text>
<polygon fill="none" stroke="black" points="512.5,-33 512.5,-58 555.5,-58 555.5,-33 512.5,-33"/>
<text text-anchor="start" x="517.5" y="-41.8" font-family="Times,serif" font-size="14.00">REG</text>
<polygon fill="none" stroke="black" points="555.5,-33 555.5,-58 578.5,-58 578.5,-33 555.5,-33"/>
<text text-anchor="start" x="560.5" y="-41.8" font-family="Times,serif" font-size="14.00">●</text>
</g>
<!-- struct_cluster_RegNextModule_REG&#45;&gt;cluster_RegNextModule_io_out -->
<g id="edge2" class="edge">
<title>struct_cluster_RegNextModule_REG:out&#45;&gt;cluster_RegNextModule_io_out</title>
<path fill="none" stroke="black" d="M579.5,-45C589.95,-45 601.26,-45 611.72,-45"/>
<polygon fill="black" stroke="black" points="611.83,-48.5 621.83,-45 611.83,-41.5 611.83,-48.5"/>
</g>
<!-- op_tail_4&#45;&gt;struct_cluster_RegNextModule_REG -->
<g id="edge1" class="edge">
<title>op_tail_4:out&#45;&gt;struct_cluster_RegNextModule_REG:in</title>
<path fill="none" stroke="black" d="M438.5,-45C456.9,-45 463.88,-45 478.35,-45"/>
<polygon fill="black" stroke="black" points="478.5,-48.5 488.5,-45 478.5,-41.5 478.5,-48.5"/>
</g>
</g>
</svg>
