<?xml version="1.0" encoding="UTF-8" standalone="no"?>
<?xml-stylesheet href="styles.css" type="text/css"?>
<!DOCTYPE svg PUBLIC "-//W3C//DTD SVG 1.1//EN"
 "http://www.w3.org/Graphics/SVG/1.1/DTD/svg11.dtd">
<!-- Generated by graphviz version 2.43.0 (0)
 -->
<!-- Title: My4ElementFir Pages: 1 -->
<svg width="1654pt" height="306pt"
 viewBox="0.00 0.00 1654.00 306.35" xmlns="http://www.w3.org/2000/svg" xmlns:xlink="http://www.w3.org/1999/xlink">
<g id="graph0" class="graph" transform="scale(1 1) rotate(0) translate(4 302.35)">
<title>My4ElementFir</title>
<polygon fill="white" stroke="transparent" points="-4,4 -4,-302.35 1650,-302.35 1650,4 -4,4"/>
<g id="clust1" class="cluster">
<title>cluster_My4ElementFir</title>
<polygon fill="#fff8dc" stroke="black" points="8,-41.35 8,-290.35 1638,-290.35 1638,-41.35 8,-41.35"/>
<text text-anchor="middle" x="823" y="-275.15" font-family="Times,serif" font-size="14.00">My4ElementFir</text>
</g>
<!-- cluster_My4ElementFir_clock -->
<g id="node1" class="node">
<title>cluster_My4ElementFir_clock</title>
<polygon fill="#cccccc" stroke="black" points="70,-252.35 16,-252.35 16,-216.35 70,-216.35 70,-252.35"/>
<text text-anchor="middle" x="43" y="-230.65" font-family="Times,serif" font-size="14.00">clock</text>
</g>
<!-- cluster_My4ElementFir_reset -->
<g id="node2" class="node">
<title>cluster_My4ElementFir_reset</title>
<polygon fill="#cccccc" stroke="black" points="70,-124.35 16,-124.35 16,-88.35 70,-88.35 70,-124.35"/>
<text text-anchor="middle" x="43" y="-102.65" font-family="Times,serif" font-size="14.00">reset</text>
</g>
<!-- mux_1443962739 -->
<g id="node20" class="node">
<title>mux_1443962739</title>
<polygon fill="#afeeee" stroke="transparent" points="124.5,-129.35 124.5,-179.35 196.5,-179.35 196.5,-129.35 124.5,-129.35"/>
<polygon fill="none" stroke="black" points="124.5,-154.35 124.5,-179.35 147.5,-179.35 147.5,-154.35 124.5,-154.35"/>
<text text-anchor="start" x="131" y="-163.15" font-family="Times,serif" font-size="14.00">0</text>
<polygon fill="none" stroke="black" points="147.5,-129.35 147.5,-179.35 173.5,-179.35 173.5,-129.35 147.5,-129.35"/>
<text text-anchor="start" x="152.5" y="-150.65" font-family="Times,serif" font-size="14.00">a?</text>
<polygon fill="none" stroke="black" points="173.5,-129.35 173.5,-179.35 196.5,-179.35 196.5,-129.35 173.5,-129.35"/>
<text text-anchor="start" x="178.5" y="-150.65" font-family="Times,serif" font-size="14.00">●</text>
<polygon fill="none" stroke="black" points="124.5,-129.35 124.5,-154.35 147.5,-154.35 147.5,-129.35 124.5,-129.35"/>
<text text-anchor="start" x="129.5" y="-138.15" font-family="Times,serif" font-size="14.00">●</text>
</g>
<!-- cluster_My4ElementFir_reset&#45;&gt;mux_1443962739 -->
<g id="edge19" class="edge">
<title>cluster_My4ElementFir_reset&#45;&gt;mux_1443962739:select</title>
<path fill="none" stroke="black" d="M70.14,-108.71C96.44,-111.36 135.44,-116.11 152.27,-122.29"/>
<polygon fill="black" stroke="black" points="150.37,-125.24 160.5,-128.35 154.52,-119.6 150.37,-125.24"/>
</g>
<!-- mux_209149210 -->
<g id="node21" class="node">
<title>mux_209149210</title>
<polygon fill="#afeeee" stroke="transparent" points="411.5,-98.35 411.5,-148.35 483.5,-148.35 483.5,-98.35 411.5,-98.35"/>
<polygon fill="none" stroke="black" points="411.5,-123.35 411.5,-148.35 434.5,-148.35 434.5,-123.35 411.5,-123.35"/>
<text text-anchor="start" x="418" y="-132.15" font-family="Times,serif" font-size="14.00">0</text>
<polygon fill="none" stroke="black" points="434.5,-98.35 434.5,-148.35 460.5,-148.35 460.5,-98.35 434.5,-98.35"/>
<text text-anchor="start" x="439.5" y="-119.65" font-family="Times,serif" font-size="14.00">a?</text>
<polygon fill="none" stroke="black" points="460.5,-98.35 460.5,-148.35 483.5,-148.35 483.5,-98.35 460.5,-98.35"/>
<text text-anchor="start" x="465.5" y="-119.65" font-family="Times,serif" font-size="14.00">●</text>
<polygon fill="none" stroke="black" points="411.5,-98.35 411.5,-123.35 434.5,-123.35 434.5,-98.35 411.5,-98.35"/>
<text text-anchor="start" x="416.5" y="-107.15" font-family="Times,serif" font-size="14.00">●</text>
</g>
<!-- cluster_My4ElementFir_reset&#45;&gt;mux_209149210 -->
<g id="edge22" class="edge">
<title>cluster_My4ElementFir_reset&#45;&gt;mux_209149210:select</title>
<path fill="none" stroke="black" d="M70.16,-104.39C150.15,-98.57 388.97,-82.37 438.46,-92.58"/>
<polygon fill="black" stroke="black" points="437.02,-95.77 447.5,-97.35 440.29,-89.58 437.02,-95.77"/>
</g>
<!-- mux_1310104725 -->
<g id="node22" class="node">
<title>mux_1310104725</title>
<polygon fill="#afeeee" stroke="transparent" points="700.5,-53.35 700.5,-103.35 772.5,-103.35 772.5,-53.35 700.5,-53.35"/>
<polygon fill="none" stroke="black" points="700.5,-78.35 700.5,-103.35 723.5,-103.35 723.5,-78.35 700.5,-78.35"/>
<text text-anchor="start" x="707" y="-87.15" font-family="Times,serif" font-size="14.00">0</text>
<polygon fill="none" stroke="black" points="723.5,-53.35 723.5,-103.35 749.5,-103.35 749.5,-53.35 723.5,-53.35"/>
<text text-anchor="start" x="728.5" y="-74.65" font-family="Times,serif" font-size="14.00">a?</text>
<polygon fill="none" stroke="black" points="749.5,-53.35 749.5,-103.35 772.5,-103.35 772.5,-53.35 749.5,-53.35"/>
<text text-anchor="start" x="754.5" y="-74.65" font-family="Times,serif" font-size="14.00">●</text>
<polygon fill="none" stroke="black" points="700.5,-53.35 700.5,-78.35 723.5,-78.35 723.5,-53.35 700.5,-53.35"/>
<text text-anchor="start" x="705.5" y="-62.15" font-family="Times,serif" font-size="14.00">●</text>
</g>
<!-- cluster_My4ElementFir_reset&#45;&gt;mux_1310104725 -->
<g id="edge20" class="edge">
<title>cluster_My4ElementFir_reset&#45;&gt;mux_1310104725:select</title>
<path fill="none" stroke="black" d="M70.09,-99.63C81.11,-97 94.11,-94.19 106,-92.35 192.84,-78.86 215.12,-75.35 303,-75.35 303,-75.35 303,-75.35 448.5,-75.35 573.27,-75.35 727.49,67.61 736.12,-42.1"/>
<polygon fill="black" stroke="black" points="732.63,-42.48 736.5,-52.35 739.63,-42.22 732.63,-42.48"/>
</g>
<!-- cluster_My4ElementFir_io_in -->
<g id="node3" class="node">
<title>cluster_My4ElementFir_io_in</title>
<polygon fill="#cccccc" stroke="black" points="70,-191.35 16,-191.35 16,-155.35 70,-155.35 70,-191.35"/>
<text text-anchor="middle" x="43" y="-169.65" font-family="Times,serif" font-size="14.00">io_in</text>
</g>
<!-- op_mul_1 -->
<g id="node9" class="node">
<title>op_mul_1</title>
<polygon fill="#d8bfd8" stroke="transparent" points="114,-205.35 114,-255.35 207,-255.35 207,-205.35 114,-205.35"/>
<polygon fill="none" stroke="black" points="114.5,-230.35 114.5,-255.35 137.5,-255.35 137.5,-230.35 114.5,-230.35"/>
<text text-anchor="start" x="119.5" y="-239.15" font-family="Times,serif" font-size="14.00">●</text>
<polygon fill="none" stroke="black" points="137.5,-205.35 137.5,-255.35 184.5,-255.35 184.5,-205.35 137.5,-205.35"/>
<text text-anchor="start" x="142.5" y="-226.65" font-family="Times,serif" font-size="14.00"> mul </text>
<polygon fill="none" stroke="black" points="184.5,-205.35 184.5,-255.35 207.5,-255.35 207.5,-205.35 184.5,-205.35"/>
<text text-anchor="start" x="189.5" y="-226.65" font-family="Times,serif" font-size="14.00">●</text>
<polygon fill="none" stroke="black" points="114.5,-205.35 114.5,-230.35 137.5,-230.35 137.5,-205.35 114.5,-205.35"/>
<text text-anchor="start" x="121" y="-214.15" font-family="Times,serif" font-size="14.00">0</text>
</g>
<!-- cluster_My4ElementFir_io_in&#45;&gt;op_mul_1 -->
<g id="edge12" class="edge">
<title>cluster_My4ElementFir_io_in&#45;&gt;op_mul_1:in1</title>
<path fill="none" stroke="black" d="M59.48,-191.37C73.09,-206.93 92.55,-228.39 104.52,-238.14"/>
<polygon fill="black" stroke="black" points="103.09,-241.36 113.5,-243.35 106.6,-235.3 103.09,-241.36"/>
</g>
<!-- cluster_My4ElementFir_io_in&#45;&gt;mux_1443962739 -->
<g id="edge15" class="edge">
<title>cluster_My4ElementFir_io_in&#45;&gt;mux_1443962739:in2</title>
<path fill="none" stroke="black" d="M70.18,-156.97C82.5,-150.51 97.87,-144.14 113.35,-142.05"/>
<polygon fill="black" stroke="black" points="113.77,-145.53 123.5,-141.35 113.28,-138.55 113.77,-145.53"/>
</g>
<!-- cluster_My4ElementFir_io_out -->
<g id="node4" class="node">
<title>cluster_My4ElementFir_io_out</title>
<polygon fill="#e0ffff" stroke="black" points="1630,-114.35 1571,-114.35 1571,-78.35 1630,-78.35 1630,-114.35"/>
<text text-anchor="middle" x="1600.5" y="-92.65" font-family="Times,serif" font-size="14.00">io_out</text>
</g>
<!-- struct_cluster_My4ElementFir_x_n1 -->
<g id="node5" class="node">
<title>struct_cluster_My4ElementFir_x_n1</title>
<polygon fill="#ffe4b5" stroke="transparent" points="259,-142.85 259,-167.85 349,-167.85 349,-142.85 259,-142.85"/>
<polygon fill="none" stroke="black" points="259,-142.35 259,-167.35 282,-167.35 282,-142.35 259,-142.35"/>
<text text-anchor="start" x="264" y="-151.15" font-family="Times,serif" font-size="14.00">●</text>
<polygon fill="none" stroke="black" points="282,-142.35 282,-167.35 326,-167.35 326,-142.35 282,-142.35"/>
<text text-anchor="start" x="287" y="-151.15" font-family="Times,serif" font-size="14.00">x_n1</text>
<polygon fill="none" stroke="black" points="326,-142.35 326,-167.35 349,-167.35 349,-142.35 326,-142.35"/>
<text text-anchor="start" x="331" y="-151.15" font-family="Times,serif" font-size="14.00">●</text>
</g>
<!-- op_mul_9 -->
<g id="node17" class="node">
<title>op_mul_9</title>
<polygon fill="#d8bfd8" stroke="transparent" points="401,-174.35 401,-224.35 494,-224.35 494,-174.35 401,-174.35"/>
<polygon fill="none" stroke="black" points="401.5,-199.35 401.5,-224.35 424.5,-224.35 424.5,-199.35 401.5,-199.35"/>
<text text-anchor="start" x="406.5" y="-208.15" font-family="Times,serif" font-size="14.00">●</text>
<polygon fill="none" stroke="black" points="424.5,-174.35 424.5,-224.35 471.5,-224.35 471.5,-174.35 424.5,-174.35"/>
<text text-anchor="start" x="429.5" y="-195.65" font-family="Times,serif" font-size="14.00"> mul </text>
<polygon fill="none" stroke="black" points="471.5,-174.35 471.5,-224.35 494.5,-224.35 494.5,-174.35 471.5,-174.35"/>
<text text-anchor="start" x="476.5" y="-195.65" font-family="Times,serif" font-size="14.00">●</text>
<polygon fill="none" stroke="black" points="401.5,-174.35 401.5,-199.35 424.5,-199.35 424.5,-174.35 401.5,-174.35"/>
<text text-anchor="start" x="408" y="-183.15" font-family="Times,serif" font-size="14.00">0</text>
</g>
<!-- struct_cluster_My4ElementFir_x_n1&#45;&gt;op_mul_9 -->
<g id="edge17" class="edge">
<title>struct_cluster_My4ElementFir_x_n1:out&#45;&gt;op_mul_9:in1</title>
<path fill="none" stroke="black" d="M350,-154.35C380.17,-154.35 369.79,-199.55 390.46,-210.14"/>
<polygon fill="black" stroke="black" points="389.98,-213.62 400.5,-212.35 391.48,-206.79 389.98,-213.62"/>
</g>
<!-- struct_cluster_My4ElementFir_x_n1&#45;&gt;mux_209149210 -->
<g id="edge2" class="edge">
<title>struct_cluster_My4ElementFir_x_n1:out&#45;&gt;mux_209149210:in2</title>
<path fill="none" stroke="black" d="M350,-154.35C379.48,-154.35 378.11,-119.75 400.6,-111.91"/>
<polygon fill="black" stroke="black" points="401.17,-115.37 410.5,-110.35 400.08,-108.45 401.17,-115.37"/>
</g>
<!-- struct_cluster_My4ElementFir_x_n2 -->
<g id="node6" class="node">
<title>struct_cluster_My4ElementFir_x_n2</title>
<polygon fill="#ffe4b5" stroke="transparent" points="547,-111.85 547,-136.85 637,-136.85 637,-111.85 547,-111.85"/>
<polygon fill="none" stroke="black" points="547,-111.35 547,-136.35 570,-136.35 570,-111.35 547,-111.35"/>
<text text-anchor="start" x="552" y="-120.15" font-family="Times,serif" font-size="14.00">●</text>
<polygon fill="none" stroke="black" points="570,-111.35 570,-136.35 614,-136.35 614,-111.35 570,-111.35"/>
<text text-anchor="start" x="575" y="-120.15" font-family="Times,serif" font-size="14.00">x_n2</text>
<polygon fill="none" stroke="black" points="614,-111.35 614,-136.35 637,-136.35 637,-111.35 614,-111.35"/>
<text text-anchor="start" x="619" y="-120.15" font-family="Times,serif" font-size="14.00">●</text>
</g>
<!-- op_mul_10 -->
<g id="node18" class="node">
<title>op_mul_10</title>
<polygon fill="#d8bfd8" stroke="transparent" points="690,-129.35 690,-179.35 783,-179.35 783,-129.35 690,-129.35"/>
<polygon fill="none" stroke="black" points="690.5,-154.35 690.5,-179.35 713.5,-179.35 713.5,-154.35 690.5,-154.35"/>
<text text-anchor="start" x="695.5" y="-163.15" font-family="Times,serif" font-size="14.00">●</text>
<polygon fill="none" stroke="black" points="713.5,-129.35 713.5,-179.35 760.5,-179.35 760.5,-129.35 713.5,-129.35"/>
<text text-anchor="start" x="718.5" y="-150.65" font-family="Times,serif" font-size="14.00"> mul </text>
<polygon fill="none" stroke="black" points="760.5,-129.35 760.5,-179.35 783.5,-179.35 783.5,-129.35 760.5,-129.35"/>
<text text-anchor="start" x="765.5" y="-150.65" font-family="Times,serif" font-size="14.00">●</text>
<polygon fill="none" stroke="black" points="690.5,-129.35 690.5,-154.35 713.5,-154.35 713.5,-129.35 690.5,-129.35"/>
<text text-anchor="start" x="697" y="-138.15" font-family="Times,serif" font-size="14.00">0</text>
</g>
<!-- struct_cluster_My4ElementFir_x_n2&#45;&gt;op_mul_10 -->
<g id="edge3" class="edge">
<title>struct_cluster_My4ElementFir_x_n2:out&#45;&gt;op_mul_10:in1</title>
<path fill="none" stroke="black" d="M638,-123.35C664.11,-123.35 661.02,-156.44 679.38,-165.22"/>
<polygon fill="black" stroke="black" points="678.99,-168.72 689.5,-167.35 680.43,-161.87 678.99,-168.72"/>
</g>
<!-- struct_cluster_My4ElementFir_x_n2&#45;&gt;mux_1310104725 -->
<g id="edge4" class="edge">
<title>struct_cluster_My4ElementFir_x_n2:out&#45;&gt;mux_1310104725:in2</title>
<path fill="none" stroke="black" d="M638,-123.35C671.76,-123.35 664.17,-76.53 689.53,-67.02"/>
<polygon fill="black" stroke="black" points="690.22,-70.45 699.5,-65.35 689.06,-63.55 690.22,-70.45"/>
</g>
<!-- struct_cluster_My4ElementFir_x_n3 -->
<g id="node7" class="node">
<title>struct_cluster_My4ElementFir_x_n3</title>
<polygon fill="#ffe4b5" stroke="transparent" points="836,-72.85 836,-97.85 926,-97.85 926,-72.85 836,-72.85"/>
<polygon fill="none" stroke="black" points="836,-72.35 836,-97.35 859,-97.35 859,-72.35 836,-72.35"/>
<text text-anchor="start" x="841" y="-81.15" font-family="Times,serif" font-size="14.00">●</text>
<polygon fill="none" stroke="black" points="859,-72.35 859,-97.35 903,-97.35 903,-72.35 859,-72.35"/>
<text text-anchor="start" x="864" y="-81.15" font-family="Times,serif" font-size="14.00">x_n3</text>
<polygon fill="none" stroke="black" points="903,-72.35 903,-97.35 926,-97.35 926,-72.35 903,-72.35"/>
<text text-anchor="start" x="908" y="-81.15" font-family="Times,serif" font-size="14.00">●</text>
</g>
<!-- op_mul_11 -->
<g id="node19" class="node">
<title>op_mul_11</title>
<polygon fill="#d8bfd8" stroke="transparent" points="979,-53.35 979,-103.35 1072,-103.35 1072,-53.35 979,-53.35"/>
<polygon fill="none" stroke="black" points="979.5,-78.35 979.5,-103.35 1002.5,-103.35 1002.5,-78.35 979.5,-78.35"/>
<text text-anchor="start" x="984.5" y="-87.15" font-family="Times,serif" font-size="14.00">●</text>
<polygon fill="none" stroke="black" points="1002.5,-53.35 1002.5,-103.35 1049.5,-103.35 1049.5,-53.35 1002.5,-53.35"/>
<text text-anchor="start" x="1007.5" y="-74.65" font-family="Times,serif" font-size="14.00"> mul </text>
<polygon fill="none" stroke="black" points="1049.5,-53.35 1049.5,-103.35 1072.5,-103.35 1072.5,-53.35 1049.5,-53.35"/>
<text text-anchor="start" x="1054.5" y="-74.65" font-family="Times,serif" font-size="14.00">●</text>
<polygon fill="none" stroke="black" points="979.5,-53.35 979.5,-78.35 1002.5,-78.35 1002.5,-53.35 979.5,-53.35"/>
<text text-anchor="start" x="986" y="-62.15" font-family="Times,serif" font-size="14.00">0</text>
</g>
<!-- struct_cluster_My4ElementFir_x_n3&#45;&gt;op_mul_11 -->
<g id="edge9" class="edge">
<title>struct_cluster_My4ElementFir_x_n3:out&#45;&gt;op_mul_11:in1</title>
<path fill="none" stroke="black" d="M927,-84.35C946.31,-84.35 953.18,-89.24 968.41,-90.84"/>
<polygon fill="black" stroke="black" points="968.34,-94.34 978.5,-91.35 968.69,-87.35 968.34,-94.34"/>
</g>
<!-- cluster_My4ElementFir__T -->
<g id="node8" class="node">
<title>cluster_My4ElementFir__T</title>
<polygon fill="none" stroke="black" points="331,-253.35 277,-253.35 277,-217.35 331,-217.35 331,-253.35"/>
<text text-anchor="middle" x="304" y="-231.65" font-family="Times,serif" font-size="14.00">_T</text>
</g>
<!-- op_add_8 -->
<g id="node16" class="node">
<title>op_add_8</title>
<polygon fill="#d8bfd8" stroke="transparent" points="546,-205.35 546,-255.35 638,-255.35 638,-205.35 546,-205.35"/>
<polygon fill="none" stroke="black" points="546,-230.35 546,-255.35 569,-255.35 569,-230.35 546,-230.35"/>
<text text-anchor="start" x="551" y="-239.15" font-family="Times,serif" font-size="14.00">●</text>
<polygon fill="none" stroke="black" points="569,-205.35 569,-255.35 615,-255.35 615,-205.35 569,-205.35"/>
<text text-anchor="start" x="574" y="-226.65" font-family="Times,serif" font-size="14.00"> add </text>
<polygon fill="none" stroke="black" points="615,-205.35 615,-255.35 638,-255.35 638,-205.35 615,-205.35"/>
<text text-anchor="start" x="620" y="-226.65" font-family="Times,serif" font-size="14.00">●</text>
<polygon fill="none" stroke="black" points="546,-205.35 546,-230.35 569,-230.35 569,-205.35 546,-205.35"/>
<text text-anchor="start" x="551" y="-214.15" font-family="Times,serif" font-size="14.00">●</text>
</g>
<!-- cluster_My4ElementFir__T&#45;&gt;op_add_8 -->
<g id="edge1" class="edge">
<title>cluster_My4ElementFir__T&#45;&gt;op_add_8:in1</title>
<path fill="none" stroke="black" d="M331.27,-236.8C373.51,-239 459.44,-242.99 534.9,-243.32"/>
<polygon fill="black" stroke="black" points="534.99,-246.82 545,-243.35 535.01,-239.82 534.99,-246.82"/>
</g>
<!-- op_mul_1&#45;&gt;cluster_My4ElementFir__T -->
<g id="edge21" class="edge">
<title>op_mul_1:out&#45;&gt;cluster_My4ElementFir__T</title>
<path fill="none" stroke="black" d="M208.5,-230.35C227.68,-230.35 249.03,-231.39 266.57,-232.52"/>
<polygon fill="black" stroke="black" points="266.73,-236.04 276.95,-233.23 267.21,-229.05 266.73,-236.04"/>
</g>
<!-- op_bits_2 -->
<g id="node10" class="node">
<title>op_bits_2</title>
<polygon fill="#d8bfd8" stroke="transparent" points="1409,-71.35 1409,-121.35 1527,-121.35 1527,-71.35 1409,-71.35"/>
<polygon fill="none" stroke="black" points="1409,-96.35 1409,-121.35 1457,-121.35 1457,-96.35 1409,-96.35"/>
<text text-anchor="start" x="1426.5" y="-105.15" font-family="Times,serif" font-size="14.00">●</text>
<polygon fill="none" stroke="black" points="1457,-71.35 1457,-121.35 1504,-121.35 1504,-71.35 1457,-71.35"/>
<text text-anchor="start" x="1462" y="-92.65" font-family="Times,serif" font-size="14.00"> bits </text>
<polygon fill="none" stroke="black" points="1504,-71.35 1504,-121.35 1527,-121.35 1527,-71.35 1504,-71.35"/>
<text text-anchor="start" x="1509" y="-92.65" font-family="Times,serif" font-size="14.00">●</text>
<polygon fill="none" stroke="black" points="1409,-71.35 1409,-96.35 1457,-96.35 1457,-71.35 1409,-71.35"/>
<text text-anchor="start" x="1414" y="-80.15" font-family="Times,serif" font-size="14.00">(7, 0)</text>
</g>
<!-- op_bits_2&#45;&gt;cluster_My4ElementFir_io_out -->
<g id="edge10" class="edge">
<title>op_bits_2:out&#45;&gt;cluster_My4ElementFir_io_out</title>
<path fill="none" stroke="black" d="M1528,-96.35C1538.61,-96.35 1550.11,-96.35 1560.72,-96.35"/>
<polygon fill="black" stroke="black" points="1560.97,-99.85 1570.97,-96.35 1560.97,-92.85 1560.97,-99.85"/>
</g>
<!-- op_tail_3 -->
<g id="node11" class="node">
<title>op_tail_3</title>
<polygon fill="#d8bfd8" stroke="transparent" points="1268,-84.35 1268,-134.35 1357,-134.35 1357,-84.35 1268,-84.35"/>
<polygon fill="none" stroke="black" points="1268.5,-109.35 1268.5,-134.35 1291.5,-134.35 1291.5,-109.35 1268.5,-109.35"/>
<text text-anchor="start" x="1273.5" y="-118.15" font-family="Times,serif" font-size="14.00">●</text>
<polygon fill="none" stroke="black" points="1291.5,-84.35 1291.5,-134.35 1334.5,-134.35 1334.5,-84.35 1291.5,-84.35"/>
<text text-anchor="start" x="1296.5" y="-105.65" font-family="Times,serif" font-size="14.00"> tail </text>
<polygon fill="none" stroke="black" points="1334.5,-84.35 1334.5,-134.35 1357.5,-134.35 1357.5,-84.35 1334.5,-84.35"/>
<text text-anchor="start" x="1339.5" y="-105.65" font-family="Times,serif" font-size="14.00">●</text>
<polygon fill="none" stroke="black" points="1268.5,-84.35 1268.5,-109.35 1291.5,-109.35 1291.5,-84.35 1268.5,-84.35"/>
<text text-anchor="start" x="1275" y="-93.15" font-family="Times,serif" font-size="14.00">1</text>
</g>
<!-- op_tail_3&#45;&gt;op_bits_2 -->
<g id="edge6" class="edge">
<title>op_tail_3:out&#45;&gt;op_bits_2:in1</title>
<path fill="none" stroke="black" d="M1358.5,-109.35C1376.72,-109.35 1383.62,-109.35 1397.95,-109.35"/>
<polygon fill="black" stroke="black" points="1398,-112.85 1408,-109.35 1398,-105.85 1398,-112.85"/>
</g>
<!-- op_add_4 -->
<g id="node12" class="node">
<title>op_add_4</title>
<polygon fill="#d8bfd8" stroke="transparent" points="1124,-97.35 1124,-147.35 1216,-147.35 1216,-97.35 1124,-97.35"/>
<polygon fill="none" stroke="black" points="1124,-122.35 1124,-147.35 1147,-147.35 1147,-122.35 1124,-122.35"/>
<text text-anchor="start" x="1129" y="-131.15" font-family="Times,serif" font-size="14.00">●</text>
<polygon fill="none" stroke="black" points="1147,-97.35 1147,-147.35 1193,-147.35 1193,-97.35 1147,-97.35"/>
<text text-anchor="start" x="1152" y="-118.65" font-family="Times,serif" font-size="14.00"> add </text>
<polygon fill="none" stroke="black" points="1193,-97.35 1193,-147.35 1216,-147.35 1216,-97.35 1193,-97.35"/>
<text text-anchor="start" x="1198" y="-118.65" font-family="Times,serif" font-size="14.00">●</text>
<polygon fill="none" stroke="black" points="1124,-97.35 1124,-122.35 1147,-122.35 1147,-97.35 1124,-97.35"/>
<text text-anchor="start" x="1129" y="-106.15" font-family="Times,serif" font-size="14.00">●</text>
</g>
<!-- op_add_4&#45;&gt;op_tail_3 -->
<g id="edge7" class="edge">
<title>op_add_4:out&#45;&gt;op_tail_3:in1</title>
<path fill="none" stroke="black" d="M1217,-122.35C1235.59,-122.35 1242.63,-122.35 1257.25,-122.35"/>
<polygon fill="black" stroke="black" points="1257.5,-125.85 1267.5,-122.35 1257.5,-118.85 1257.5,-125.85"/>
</g>
<!-- op_tail_5 -->
<g id="node13" class="node">
<title>op_tail_5</title>
<polygon fill="#d8bfd8" stroke="transparent" points="981,-129.35 981,-179.35 1070,-179.35 1070,-129.35 981,-129.35"/>
<polygon fill="none" stroke="black" points="981.5,-154.35 981.5,-179.35 1004.5,-179.35 1004.5,-154.35 981.5,-154.35"/>
<text text-anchor="start" x="986.5" y="-163.15" font-family="Times,serif" font-size="14.00">●</text>
<polygon fill="none" stroke="black" points="1004.5,-129.35 1004.5,-179.35 1047.5,-179.35 1047.5,-129.35 1004.5,-129.35"/>
<text text-anchor="start" x="1009.5" y="-150.65" font-family="Times,serif" font-size="14.00"> tail </text>
<polygon fill="none" stroke="black" points="1047.5,-129.35 1047.5,-179.35 1070.5,-179.35 1070.5,-129.35 1047.5,-129.35"/>
<text text-anchor="start" x="1052.5" y="-150.65" font-family="Times,serif" font-size="14.00">●</text>
<polygon fill="none" stroke="black" points="981.5,-129.35 981.5,-154.35 1004.5,-154.35 1004.5,-129.35 981.5,-129.35"/>
<text text-anchor="start" x="988" y="-138.15" font-family="Times,serif" font-size="14.00">1</text>
</g>
<!-- op_tail_5&#45;&gt;op_add_4 -->
<g id="edge24" class="edge">
<title>op_tail_5:out&#45;&gt;op_add_4:in1</title>
<path fill="none" stroke="black" d="M1071.5,-154.35C1092.08,-154.35 1097.23,-140.82 1112.99,-136.59"/>
<polygon fill="black" stroke="black" points="1113.51,-140.06 1123,-135.35 1112.64,-133.11 1113.51,-140.06"/>
</g>
<!-- op_add_6 -->
<g id="node14" class="node">
<title>op_add_6</title>
<polygon fill="#d8bfd8" stroke="transparent" points="835,-142.35 835,-192.35 927,-192.35 927,-142.35 835,-142.35"/>
<polygon fill="none" stroke="black" points="835,-167.35 835,-192.35 858,-192.35 858,-167.35 835,-167.35"/>
<text text-anchor="start" x="840" y="-176.15" font-family="Times,serif" font-size="14.00">●</text>
<polygon fill="none" stroke="black" points="858,-142.35 858,-192.35 904,-192.35 904,-142.35 858,-142.35"/>
<text text-anchor="start" x="863" y="-163.65" font-family="Times,serif" font-size="14.00"> add </text>
<polygon fill="none" stroke="black" points="904,-142.35 904,-192.35 927,-192.35 927,-142.35 904,-142.35"/>
<text text-anchor="start" x="909" y="-163.65" font-family="Times,serif" font-size="14.00">●</text>
<polygon fill="none" stroke="black" points="835,-142.35 835,-167.35 858,-167.35 858,-142.35 835,-142.35"/>
<text text-anchor="start" x="840" y="-151.15" font-family="Times,serif" font-size="14.00">●</text>
</g>
<!-- op_add_6&#45;&gt;op_tail_5 -->
<g id="edge23" class="edge">
<title>op_add_6:out&#45;&gt;op_tail_5:in1</title>
<path fill="none" stroke="black" d="M928,-167.35C947.51,-167.35 954.78,-167.35 970.27,-167.35"/>
<polygon fill="black" stroke="black" points="970.5,-170.85 980.5,-167.35 970.5,-163.85 970.5,-170.85"/>
</g>
<!-- op_tail_7 -->
<g id="node15" class="node">
<title>op_tail_7</title>
<polygon fill="#d8bfd8" stroke="transparent" points="692,-205.35 692,-255.35 781,-255.35 781,-205.35 692,-205.35"/>
<polygon fill="none" stroke="black" points="692.5,-230.35 692.5,-255.35 715.5,-255.35 715.5,-230.35 692.5,-230.35"/>
<text text-anchor="start" x="697.5" y="-239.15" font-family="Times,serif" font-size="14.00">●</text>
<polygon fill="none" stroke="black" points="715.5,-205.35 715.5,-255.35 758.5,-255.35 758.5,-205.35 715.5,-205.35"/>
<text text-anchor="start" x="720.5" y="-226.65" font-family="Times,serif" font-size="14.00"> tail </text>
<polygon fill="none" stroke="black" points="758.5,-205.35 758.5,-255.35 781.5,-255.35 781.5,-205.35 758.5,-205.35"/>
<text text-anchor="start" x="763.5" y="-226.65" font-family="Times,serif" font-size="14.00">●</text>
<polygon fill="none" stroke="black" points="692.5,-205.35 692.5,-230.35 715.5,-230.35 715.5,-205.35 692.5,-205.35"/>
<text text-anchor="start" x="699" y="-214.15" font-family="Times,serif" font-size="14.00">1</text>
</g>
<!-- op_tail_7&#45;&gt;op_add_6 -->
<g id="edge14" class="edge">
<title>op_tail_7:out&#45;&gt;op_add_6:in1</title>
<path fill="none" stroke="black" d="M782.5,-230.35C810.54,-230.35 804.43,-191.72 824.2,-182.37"/>
<polygon fill="black" stroke="black" points="824.91,-185.8 834,-180.35 823.5,-178.94 824.91,-185.8"/>
</g>
<!-- op_add_8&#45;&gt;op_tail_7 -->
<g id="edge8" class="edge">
<title>op_add_8:out&#45;&gt;op_tail_7:in1</title>
<path fill="none" stroke="black" d="M639,-230.35C659.28,-230.35 665.6,-239.6 681.52,-242.49"/>
<polygon fill="black" stroke="black" points="681.24,-245.98 691.5,-243.35 681.83,-239.01 681.24,-245.98"/>
</g>
<!-- op_mul_9&#45;&gt;op_add_8 -->
<g id="edge18" class="edge">
<title>op_mul_9:out&#45;&gt;op_add_8:in2</title>
<path fill="none" stroke="black" d="M495.5,-199.35C515.07,-199.35 520.15,-211.93 534.97,-216.05"/>
<polygon fill="black" stroke="black" points="534.63,-219.54 545,-217.35 535.53,-212.6 534.63,-219.54"/>
</g>
<!-- op_mul_10&#45;&gt;op_add_6 -->
<g id="edge5" class="edge">
<title>op_mul_10:out&#45;&gt;op_add_6:in2</title>
<path fill="none" stroke="black" d="M784.5,-154.35C802.72,-154.35 809.62,-154.35 823.95,-154.35"/>
<polygon fill="black" stroke="black" points="824,-157.85 834,-154.35 824,-150.85 824,-157.85"/>
</g>
<!-- op_mul_11&#45;&gt;op_add_4 -->
<g id="edge13" class="edge">
<title>op_mul_11:out&#45;&gt;op_add_4:in2</title>
<path fill="none" stroke="black" d="M1073.5,-78.35C1095.61,-78.35 1097.13,-100.83 1113.13,-107.5"/>
<polygon fill="black" stroke="black" points="1112.53,-110.95 1123,-109.35 1113.81,-104.07 1112.53,-110.95"/>
</g>
<!-- mux_1443962739&#45;&gt;struct_cluster_My4ElementFir_x_n1 -->
<g id="edge16" class="edge">
<title>mux_1443962739:out&#45;&gt;struct_cluster_My4ElementFir_x_n1:in</title>
<path fill="none" stroke="black" d="M197.5,-154.35C220.71,-154.35 228.9,-154.35 248,-154.35"/>
<polygon fill="black" stroke="black" points="248,-157.85 258,-154.35 248,-150.85 248,-157.85"/>
</g>
<!-- mux_209149210&#45;&gt;struct_cluster_My4ElementFir_x_n2 -->
<g id="edge25" class="edge">
<title>mux_209149210:out&#45;&gt;struct_cluster_My4ElementFir_x_n2:in</title>
<path fill="none" stroke="black" d="M484.5,-123.35C508.1,-123.35 516.41,-123.35 535.83,-123.35"/>
<polygon fill="black" stroke="black" points="536,-126.85 546,-123.35 536,-119.85 536,-126.85"/>
</g>
<!-- mux_1310104725&#45;&gt;struct_cluster_My4ElementFir_x_n3 -->
<g id="edge11" class="edge">
<title>mux_1310104725:out&#45;&gt;struct_cluster_My4ElementFir_x_n3:in</title>
<path fill="none" stroke="black" d="M773.5,-78.35C797.21,-78.35 805.35,-82.82 824.8,-84.04"/>
<polygon fill="black" stroke="black" points="824.9,-87.55 835,-84.35 825.11,-80.55 824.9,-87.55"/>
</g>
</g>
</svg>
