<?xml version="1.0" encoding="UTF-8" standalone="no"?>
<?xml-stylesheet href="styles.css" type="text/css"?>
<!DOCTYPE svg PUBLIC "-//W3C//DTD SVG 1.1//EN"
 "http://www.w3.org/Graphics/SVG/1.1/DTD/svg11.dtd">
<!-- Generated by graphviz version 2.43.0 (0)
 -->
<!-- Title: RegInitModule Pages: 1 -->
<svg width="854pt" height="175pt"
 viewBox="0.00 0.00 854.00 175.00" xmlns="http://www.w3.org/2000/svg" xmlns:xlink="http://www.w3.org/1999/xlink">
<g id="graph0" class="graph" transform="scale(1 1) rotate(0) translate(4 171)">
<title>RegInitModule</title>
<polygon fill="white" stroke="transparent" points="-4,4 -4,-171 850,-171 850,4 -4,4"/>
<g id="clust1" class="cluster">
<title>cluster_RegInitModule</title>
<polygon fill="#fff8dc" stroke="black" points="8,-8 8,-159 838,-159 838,-8 8,-8"/>
<text text-anchor="middle" x="423" y="-143.8" font-family="Times,serif" font-size="14.00">RegInitModule</text>
</g>
<!-- cluster_RegInitModule_clock -->
<g id="node1" class="node">
<title>cluster_RegInitModule_clock</title>
<polygon fill="#cccccc" stroke="black" points="70,-128 16,-128 16,-92 70,-92 70,-128"/>
<text text-anchor="middle" x="43" y="-106.3" font-family="Times,serif" font-size="14.00">clock</text>
</g>
<!-- cluster_RegInitModule_reset -->
<g id="node2" class="node">
<title>cluster_RegInitModule_reset</title>
<polygon fill="#cccccc" stroke="black" points="419.5,-128 365.5,-128 365.5,-92 419.5,-92 419.5,-128"/>
<text text-anchor="middle" x="392.5" y="-106.3" font-family="Times,serif" font-size="14.00">reset</text>
</g>
<!-- mux_1523396448 -->
<g id="node8" class="node">
<title>mux_1523396448</title>
<polygon fill="#afeeee" stroke="transparent" points="489,-53 489,-103 561,-103 561,-53 489,-53"/>
<polygon fill="none" stroke="black" points="489,-78 489,-103 512,-103 512,-78 489,-78"/>
<text text-anchor="start" x="495.5" y="-86.8" font-family="Times,serif" font-size="14.00">0</text>
<polygon fill="none" stroke="black" points="512,-53 512,-103 538,-103 538,-53 512,-53"/>
<text text-anchor="start" x="517" y="-74.3" font-family="Times,serif" font-size="14.00">a?</text>
<polygon fill="none" stroke="black" points="538,-53 538,-103 561,-103 561,-53 538,-53"/>
<text text-anchor="start" x="543" y="-74.3" font-family="Times,serif" font-size="14.00">●</text>
<polygon fill="none" stroke="black" points="489,-53 489,-78 512,-78 512,-53 489,-53"/>
<text text-anchor="start" x="494" y="-61.8" font-family="Times,serif" font-size="14.00">●</text>
</g>
<!-- cluster_RegInitModule_reset&#45;&gt;mux_1523396448 -->
<g id="edge5" class="edge">
<title>cluster_RegInitModule_reset&#45;&gt;mux_1523396448:select</title>
<path fill="none" stroke="black" d="M419.79,-119.11C454.72,-129.93 513.22,-143.09 523.45,-113.92"/>
<polygon fill="black" stroke="black" points="526.91,-114.42 525,-104 520,-113.34 526.91,-114.42"/>
</g>
<!-- cluster_RegInitModule_io_in -->
<g id="node3" class="node">
<title>cluster_RegInitModule_io_in</title>
<polygon fill="#cccccc" stroke="black" points="70,-74 16,-74 16,-38 70,-38 70,-74"/>
<text text-anchor="middle" x="43" y="-52.3" font-family="Times,serif" font-size="14.00">io_in</text>
</g>
<!-- op_add_5 -->
<g id="node7" class="node">
<title>op_add_5</title>
<polygon fill="#d8bfd8" stroke="transparent" points="114,-26 114,-76 206,-76 206,-26 114,-26"/>
<polygon fill="none" stroke="black" points="114,-51 114,-76 137,-76 137,-51 114,-51"/>
<text text-anchor="start" x="119" y="-59.8" font-family="Times,serif" font-size="14.00">●</text>
<polygon fill="none" stroke="black" points="137,-26 137,-76 183,-76 183,-26 137,-26"/>
<text text-anchor="start" x="142" y="-47.3" font-family="Times,serif" font-size="14.00"> add </text>
<polygon fill="none" stroke="black" points="183,-26 183,-76 206,-76 206,-26 183,-26"/>
<text text-anchor="start" x="188" y="-47.3" font-family="Times,serif" font-size="14.00">●</text>
<polygon fill="none" stroke="black" points="114,-26 114,-51 137,-51 137,-26 114,-26"/>
<text text-anchor="start" x="120.5" y="-34.8" font-family="Times,serif" font-size="14.00">1</text>
</g>
<!-- cluster_RegInitModule_io_in&#45;&gt;op_add_5 -->
<g id="edge3" class="edge">
<title>cluster_RegInitModule_io_in&#45;&gt;op_add_5:in1</title>
<path fill="none" stroke="black" d="M70.13,-60.47C79.98,-61.87 91.54,-63.2 102.8,-63.74"/>
<polygon fill="black" stroke="black" points="102.91,-67.24 113,-64 103.09,-60.25 102.91,-67.24"/>
</g>
<!-- cluster_RegInitModule_io_out -->
<g id="node4" class="node">
<title>cluster_RegInitModule_io_out</title>
<polygon fill="#e0ffff" stroke="black" points="830,-96 771,-96 771,-60 830,-60 830,-96"/>
<text text-anchor="middle" x="800.5" y="-74.3" font-family="Times,serif" font-size="14.00">io_out</text>
</g>
<!-- struct_cluster_RegInitModule_register -->
<g id="node5" class="node">
<title>struct_cluster_RegInitModule_register</title>
<polygon fill="#ffe4b5" stroke="transparent" points="613,-66.5 613,-91.5 727,-91.5 727,-66.5 613,-66.5"/>
<polygon fill="none" stroke="black" points="613,-66 613,-91 636,-91 636,-66 613,-66"/>
<text text-anchor="start" x="618" y="-74.8" font-family="Times,serif" font-size="14.00">●</text>
<polygon fill="none" stroke="black" points="636,-66 636,-91 704,-91 704,-66 636,-66"/>
<text text-anchor="start" x="641" y="-74.8" font-family="Times,serif" font-size="14.00">register</text>
<polygon fill="none" stroke="black" points="704,-66 704,-91 727,-91 727,-66 704,-66"/>
<text text-anchor="start" x="709" y="-74.8" font-family="Times,serif" font-size="14.00">●</text>
</g>
<!-- struct_cluster_RegInitModule_register&#45;&gt;cluster_RegInitModule_io_out -->
<g id="edge6" class="edge">
<title>struct_cluster_RegInitModule_register:out&#45;&gt;cluster_RegInitModule_io_out</title>
<path fill="none" stroke="black" d="M728,-78C738.61,-78 750.11,-78 760.72,-78"/>
<polygon fill="black" stroke="black" points="760.97,-81.5 770.97,-78 760.97,-74.5 760.97,-81.5"/>
</g>
<!-- cluster_RegInitModule__T -->
<g id="node6" class="node">
<title>cluster_RegInitModule__T</title>
<polygon fill="none" stroke="black" points="304,-72 250,-72 250,-36 304,-36 304,-72"/>
<text text-anchor="middle" x="277" y="-50.3" font-family="Times,serif" font-size="14.00">_T</text>
</g>
<!-- op_tail_6 -->
<g id="node9" class="node">
<title>op_tail_6</title>
<polygon fill="#d8bfd8" stroke="transparent" points="348,-20 348,-70 437,-70 437,-20 348,-20"/>
<polygon fill="none" stroke="black" points="348.5,-45 348.5,-70 371.5,-70 371.5,-45 348.5,-45"/>
<text text-anchor="start" x="353.5" y="-53.8" font-family="Times,serif" font-size="14.00">●</text>
<polygon fill="none" stroke="black" points="371.5,-20 371.5,-70 414.5,-70 414.5,-20 371.5,-20"/>
<text text-anchor="start" x="376.5" y="-41.3" font-family="Times,serif" font-size="14.00"> tail </text>
<polygon fill="none" stroke="black" points="414.5,-20 414.5,-70 437.5,-70 437.5,-20 414.5,-20"/>
<text text-anchor="start" x="419.5" y="-41.3" font-family="Times,serif" font-size="14.00">●</text>
<polygon fill="none" stroke="black" points="348.5,-20 348.5,-45 371.5,-45 371.5,-20 348.5,-20"/>
<text text-anchor="start" x="355" y="-28.8" font-family="Times,serif" font-size="14.00">1</text>
</g>
<!-- cluster_RegInitModule__T&#45;&gt;op_tail_6 -->
<g id="edge2" class="edge">
<title>cluster_RegInitModule__T&#45;&gt;op_tail_6:in1</title>
<path fill="none" stroke="black" d="M304.05,-56.21C314.03,-56.92 325.77,-57.59 337.18,-57.87"/>
<polygon fill="black" stroke="black" points="337.46,-61.37 347.5,-58 337.55,-54.37 337.46,-61.37"/>
</g>
<!-- op_add_5&#45;&gt;cluster_RegInitModule__T -->
<g id="edge7" class="edge">
<title>op_add_5:out&#45;&gt;cluster_RegInitModule__T</title>
<path fill="none" stroke="black" d="M207,-51C217.61,-51 229.13,-51.36 239.67,-51.83"/>
<polygon fill="black" stroke="black" points="239.64,-55.33 249.8,-52.32 239.98,-48.34 239.64,-55.33"/>
</g>
<!-- mux_1523396448&#45;&gt;struct_cluster_RegInitModule_register -->
<g id="edge4" class="edge">
<title>mux_1523396448:out&#45;&gt;struct_cluster_RegInitModule_register:in</title>
<path fill="none" stroke="black" d="M562,-78C580.4,-78 587.38,-78 601.85,-78"/>
<polygon fill="black" stroke="black" points="602,-81.5 612,-78 602,-74.5 602,-81.5"/>
</g>
<!-- op_tail_6&#45;&gt;mux_1523396448 -->
<g id="edge1" class="edge">
<title>op_tail_6:out&#45;&gt;mux_1523396448:in2</title>
<path fill="none" stroke="black" d="M438.5,-45C458.34,-45 463.02,-58.98 477.88,-63.56"/>
<polygon fill="black" stroke="black" points="477.61,-67.06 488,-65 478.59,-60.13 477.61,-67.06"/>
</g>
</g>
</svg>
