<?xml version="1.0" encoding="UTF-8" standalone="no"?>
<?xml-stylesheet href="styles.css" type="text/css"?>
<!DOCTYPE svg PUBLIC "-//W3C//DTD SVG 1.1//EN"
 "http://www.w3.org/Graphics/SVG/1.1/DTD/svg11.dtd">
<!-- Generated by graphviz version 2.43.0 (0)
 -->
<!-- Title: MAC Pages: 1 -->
<svg width="774pt" height="261pt"
 viewBox="0.00 0.00 774.00 261.00" xmlns="http://www.w3.org/2000/svg" xmlns:xlink="http://www.w3.org/1999/xlink">
<g id="graph0" class="graph" transform="scale(1 1) rotate(0) translate(4 257)">
<title>MAC</title>
<polygon fill="white" stroke="transparent" points="-4,4 -4,-257 770,-257 770,4 -4,4"/>
<g id="clust1" class="cluster">
<title>cluster_MAC</title>
<polygon fill="#fff8dc" stroke="black" points="8,-8 8,-245 758,-245 758,-8 8,-8"/>
<text text-anchor="middle" x="383" y="-229.8" font-family="Times,serif" font-size="14.00">MAC</text>
</g>
<!-- cluster_MAC_clock -->
<g id="node1" class="node">
<title>cluster_MAC_clock</title>
<polygon fill="#cccccc" stroke="black" points="75.5,-214 21.5,-214 21.5,-178 75.5,-178 75.5,-214"/>
<text text-anchor="middle" x="48.5" y="-192.3" font-family="Times,serif" font-size="14.00">clock</text>
</g>
<!-- cluster_MAC_reset -->
<g id="node2" class="node">
<title>cluster_MAC_reset</title>
<polygon fill="#cccccc" stroke="black" points="75.5,-160 21.5,-160 21.5,-124 75.5,-124 75.5,-160"/>
<text text-anchor="middle" x="48.5" y="-138.3" font-family="Times,serif" font-size="14.00">reset</text>
</g>
<!-- cluster_MAC_io_in_a -->
<g id="node3" class="node">
<title>cluster_MAC_io_in_a</title>
<polygon fill="#cccccc" stroke="black" points="81,-106 16,-106 16,-70 81,-70 81,-106"/>
<text text-anchor="middle" x="48.5" y="-84.3" font-family="Times,serif" font-size="14.00">io_in_a</text>
</g>
<!-- op_mul_10 -->
<g id="node8" class="node">
<title>op_mul_10</title>
<polygon fill="#d8bfd8" stroke="transparent" points="125,-74 125,-124 218,-124 218,-74 125,-74"/>
<polygon fill="none" stroke="black" points="125.5,-99 125.5,-124 148.5,-124 148.5,-99 125.5,-99"/>
<text text-anchor="start" x="130.5" y="-107.8" font-family="Times,serif" font-size="14.00">●</text>
<polygon fill="none" stroke="black" points="148.5,-74 148.5,-124 195.5,-124 195.5,-74 148.5,-74"/>
<text text-anchor="start" x="153.5" y="-95.3" font-family="Times,serif" font-size="14.00"> mul </text>
<polygon fill="none" stroke="black" points="195.5,-74 195.5,-124 218.5,-124 218.5,-74 195.5,-74"/>
<text text-anchor="start" x="200.5" y="-95.3" font-family="Times,serif" font-size="14.00">●</text>
<polygon fill="none" stroke="black" points="125.5,-74 125.5,-99 148.5,-99 148.5,-74 125.5,-74"/>
<text text-anchor="start" x="130.5" y="-82.8" font-family="Times,serif" font-size="14.00">●</text>
</g>
<!-- cluster_MAC_io_in_a&#45;&gt;op_mul_10 -->
<g id="edge1" class="edge">
<title>cluster_MAC_io_in_a&#45;&gt;op_mul_10:in1</title>
<path fill="none" stroke="black" d="M81.28,-102.93C91.4,-106.7 102.97,-110.06 114.46,-111.4"/>
<polygon fill="black" stroke="black" points="114.31,-114.89 124.5,-112 114.73,-107.9 114.31,-114.89"/>
</g>
<!-- cluster_MAC_io_in_b -->
<g id="node4" class="node">
<title>cluster_MAC_io_in_b</title>
<polygon fill="#cccccc" stroke="black" points="81,-52 16,-52 16,-16 81,-16 81,-52"/>
<text text-anchor="middle" x="48.5" y="-30.3" font-family="Times,serif" font-size="14.00">io_in_b</text>
</g>
<!-- cluster_MAC_io_in_b&#45;&gt;op_mul_10 -->
<g id="edge7" class="edge">
<title>cluster_MAC_io_in_b&#45;&gt;op_mul_10:in2</title>
<path fill="none" stroke="black" d="M72.83,-52.19C86.97,-62.96 104.32,-75.72 115.23,-82.04"/>
<polygon fill="black" stroke="black" points="113.93,-85.29 124.5,-86 116.68,-78.85 113.93,-85.29"/>
</g>
<!-- cluster_MAC_io_in_c -->
<g id="node5" class="node">
<title>cluster_MAC_io_in_c</title>
<polygon fill="#cccccc" stroke="black" points="203.5,-52 139.5,-52 139.5,-16 203.5,-16 203.5,-52"/>
<text text-anchor="middle" x="171.5" y="-30.3" font-family="Times,serif" font-size="14.00">io_in_c</text>
</g>
<!-- op_pad_13 -->
<g id="node11" class="node">
<title>op_pad_13</title>
<polygon fill="#d8bfd8" stroke="transparent" points="270,-24.5 270,-49.5 362,-49.5 362,-24.5 270,-24.5"/>
<polygon fill="none" stroke="black" points="270,-24 270,-49 293,-49 293,-24 270,-24"/>
<text text-anchor="start" x="275" y="-32.8" font-family="Times,serif" font-size="14.00">●</text>
<polygon fill="none" stroke="black" points="293,-24 293,-49 339,-49 339,-24 293,-24"/>
<text text-anchor="start" x="298" y="-32.8" font-family="Times,serif" font-size="14.00"> pad </text>
<polygon fill="none" stroke="black" points="339,-24 339,-49 362,-49 362,-24 339,-24"/>
<text text-anchor="start" x="344" y="-32.8" font-family="Times,serif" font-size="14.00">●</text>
</g>
<!-- cluster_MAC_io_in_c&#45;&gt;op_pad_13 -->
<g id="edge5" class="edge">
<title>cluster_MAC_io_in_c&#45;&gt;op_pad_13:in1</title>
<path fill="none" stroke="black" d="M203.79,-34.98C219.79,-35.41 239.87,-35.84 258.88,-35.97"/>
<polygon fill="black" stroke="black" points="258.99,-39.47 269,-36 259.01,-32.47 258.99,-39.47"/>
</g>
<!-- cluster_MAC_io_out -->
<g id="node6" class="node">
<title>cluster_MAC_io_out</title>
<polygon fill="#e0ffff" stroke="black" points="750,-74 691,-74 691,-38 750,-38 750,-74"/>
<text text-anchor="middle" x="720.5" y="-52.3" font-family="Times,serif" font-size="14.00">io_out</text>
</g>
<!-- cluster_MAC__T -->
<g id="node7" class="node">
<title>cluster_MAC__T</title>
<polygon fill="none" stroke="black" points="343,-114 289,-114 289,-78 343,-78 343,-114"/>
<text text-anchor="middle" x="316" y="-92.3" font-family="Times,serif" font-size="14.00">_T</text>
</g>
<!-- op_add_12 -->
<g id="node10" class="node">
<title>op_add_12</title>
<polygon fill="#d8bfd8" stroke="transparent" points="414,-44 414,-94 506,-94 506,-44 414,-44"/>
<polygon fill="none" stroke="black" points="414,-69 414,-94 437,-94 437,-69 414,-69"/>
<text text-anchor="start" x="419" y="-77.8" font-family="Times,serif" font-size="14.00">●</text>
<polygon fill="none" stroke="black" points="437,-44 437,-94 483,-94 483,-44 437,-44"/>
<text text-anchor="start" x="442" y="-65.3" font-family="Times,serif" font-size="14.00"> add </text>
<polygon fill="none" stroke="black" points="483,-44 483,-94 506,-94 506,-44 483,-44"/>
<text text-anchor="start" x="488" y="-65.3" font-family="Times,serif" font-size="14.00">●</text>
<polygon fill="none" stroke="black" points="414,-44 414,-69 437,-69 437,-44 414,-44"/>
<text text-anchor="start" x="419" y="-52.8" font-family="Times,serif" font-size="14.00">●</text>
</g>
<!-- cluster_MAC__T&#45;&gt;op_add_12 -->
<g id="edge6" class="edge">
<title>cluster_MAC__T&#45;&gt;op_add_12:in1</title>
<path fill="none" stroke="black" d="M343.34,-90.06C359.84,-86.78 381.89,-83.19 402.83,-82.24"/>
<polygon fill="black" stroke="black" points="403.09,-85.73 413,-82 402.92,-78.74 403.09,-85.73"/>
</g>
<!-- op_mul_10&#45;&gt;cluster_MAC__T -->
<g id="edge4" class="edge">
<title>op_mul_10:out&#45;&gt;cluster_MAC__T</title>
<path fill="none" stroke="black" d="M219.5,-99C238.96,-99 260.64,-98.37 278.42,-97.69"/>
<polygon fill="black" stroke="black" points="278.81,-101.17 288.66,-97.27 278.53,-94.18 278.81,-101.17"/>
</g>
<!-- op_tail_11 -->
<g id="node9" class="node">
<title>op_tail_11</title>
<polygon fill="#d8bfd8" stroke="transparent" points="558,-31 558,-81 647,-81 647,-31 558,-31"/>
<polygon fill="none" stroke="black" points="558.5,-56 558.5,-81 581.5,-81 581.5,-56 558.5,-56"/>
<text text-anchor="start" x="563.5" y="-64.8" font-family="Times,serif" font-size="14.00">●</text>
<polygon fill="none" stroke="black" points="581.5,-31 581.5,-81 624.5,-81 624.5,-31 581.5,-31"/>
<text text-anchor="start" x="586.5" y="-52.3" font-family="Times,serif" font-size="14.00"> tail </text>
<polygon fill="none" stroke="black" points="624.5,-31 624.5,-81 647.5,-81 647.5,-31 624.5,-31"/>
<text text-anchor="start" x="629.5" y="-52.3" font-family="Times,serif" font-size="14.00">●</text>
<polygon fill="none" stroke="black" points="558.5,-31 558.5,-56 581.5,-56 581.5,-31 558.5,-31"/>
<text text-anchor="start" x="565" y="-39.8" font-family="Times,serif" font-size="14.00">1</text>
</g>
<!-- op_tail_11&#45;&gt;cluster_MAC_io_out -->
<g id="edge8" class="edge">
<title>op_tail_11:out&#45;&gt;cluster_MAC_io_out</title>
<path fill="none" stroke="black" d="M648.5,-56C658.95,-56 670.26,-56 680.72,-56"/>
<polygon fill="black" stroke="black" points="680.83,-59.5 690.83,-56 680.83,-52.5 680.83,-59.5"/>
</g>
<!-- op_add_12&#45;&gt;op_tail_11 -->
<g id="edge3" class="edge">
<title>op_add_12:out&#45;&gt;op_tail_11:in1</title>
<path fill="none" stroke="black" d="M507,-69C525.59,-69 532.63,-69 547.25,-69"/>
<polygon fill="black" stroke="black" points="547.5,-72.5 557.5,-69 547.5,-65.5 547.5,-72.5"/>
</g>
<!-- op_pad_13&#45;&gt;op_add_12 -->
<g id="edge2" class="edge">
<title>op_pad_13:out&#45;&gt;op_add_12:in2</title>
<path fill="none" stroke="black" d="M363,-36C383.01,-36 387.78,-49.98 402.79,-54.56"/>
<polygon fill="black" stroke="black" points="402.61,-58.07 413,-56 403.59,-51.14 402.61,-58.07"/>
</g>
</g>
</svg>
