<?xml version="1.0" encoding="UTF-8" standalone="no"?>
<?xml-stylesheet href="styles.css" type="text/css"?>
<!DOCTYPE svg PUBLIC "-//W3C//DTD SVG 1.1//EN"
 "http://www.w3.org/Graphics/SVG/1.1/DTD/svg11.dtd">
<!-- Generated by graphviz version 2.43.0 (0)
 -->
<!-- Title: GradLife Pages: 1 -->
<svg width="932pt" height="505pt"
 viewBox="0.00 0.00 932.00 505.10" xmlns="http://www.w3.org/2000/svg" xmlns:xlink="http://www.w3.org/1999/xlink">
<g id="graph0" class="graph" transform="scale(1 1) rotate(0) translate(4 501.1)">
<title>GradLife</title>
<polygon fill="white" stroke="transparent" points="-4,4 -4,-501.1 928,-501.1 928,4 -4,4"/>
<g id="clust1" class="cluster">
<title>cluster_GradLife</title>
<polygon fill="#fff8dc" stroke="black" points="8,-8 8,-469 916,-469 916,-8 8,-8"/>
<text text-anchor="middle" x="462" y="-453.8" font-family="Times,serif" font-size="14.00">GradLife</text>
</g>
<!-- cluster_GradLife_clock -->
<g id="node1" class="node">
<title>cluster_GradLife_clock</title>
<polygon fill="#cccccc" stroke="black" points="92.5,-438 38.5,-438 38.5,-402 92.5,-402 92.5,-438"/>
<text text-anchor="middle" x="65.5" y="-416.3" font-family="Times,serif" font-size="14.00">clock</text>
</g>
<!-- cluster_GradLife_reset -->
<g id="node2" class="node">
<title>cluster_GradLife_reset</title>
<polygon fill="#cccccc" stroke="black" points="92.5,-384 38.5,-384 38.5,-348 92.5,-348 92.5,-384"/>
<text text-anchor="middle" x="65.5" y="-362.3" font-family="Times,serif" font-size="14.00">reset</text>
</g>
<!-- cluster_GradLife_io_state -->
<g id="node3" class="node">
<title>cluster_GradLife_io_state</title>
<polygon fill="#cccccc" stroke="black" points="235.5,-73 163.5,-73 163.5,-37 235.5,-37 235.5,-73"/>
<text text-anchor="middle" x="199.5" y="-51.3" font-family="Times,serif" font-size="14.00">io_state</text>
</g>
<!-- op_eq_2 -->
<g id="node9" class="node">
<title>op_eq_2</title>
<polygon fill="#d8bfd8" stroke="transparent" points="292,-20 292,-70 375,-70 375,-20 292,-20"/>
<polygon fill="none" stroke="black" points="292.5,-45 292.5,-70 315.5,-70 315.5,-45 292.5,-45"/>
<text text-anchor="start" x="297.5" y="-53.8" font-family="Times,serif" font-size="14.00">●</text>
<polygon fill="none" stroke="black" points="315.5,-20 315.5,-70 352.5,-70 352.5,-20 315.5,-20"/>
<text text-anchor="start" x="320.5" y="-41.3" font-family="Times,serif" font-size="14.00"> eq </text>
<polygon fill="none" stroke="black" points="352.5,-20 352.5,-70 375.5,-70 375.5,-20 352.5,-20"/>
<text text-anchor="start" x="357.5" y="-41.3" font-family="Times,serif" font-size="14.00">●</text>
<polygon fill="none" stroke="black" points="292.5,-20 292.5,-45 315.5,-45 315.5,-20 292.5,-20"/>
<text text-anchor="start" x="299" y="-28.8" font-family="Times,serif" font-size="14.00">0</text>
</g>
<!-- cluster_GradLife_io_state&#45;&gt;op_eq_2 -->
<g id="edge19" class="edge">
<title>cluster_GradLife_io_state&#45;&gt;op_eq_2:in1</title>
<path fill="none" stroke="black" d="M235.93,-56.71C249.74,-57.26 265.95,-57.78 281.45,-57.94"/>
<polygon fill="black" stroke="black" points="281.48,-61.44 291.5,-58 281.52,-54.44 281.48,-61.44"/>
</g>
<!-- op_eq_3 -->
<g id="node15" class="node">
<title>op_eq_3</title>
<polygon fill="#d8bfd8" stroke="transparent" points="427,-68 427,-118 510,-118 510,-68 427,-68"/>
<polygon fill="none" stroke="black" points="427.5,-93 427.5,-118 450.5,-118 450.5,-93 427.5,-93"/>
<text text-anchor="start" x="432.5" y="-101.8" font-family="Times,serif" font-size="14.00">●</text>
<polygon fill="none" stroke="black" points="450.5,-68 450.5,-118 487.5,-118 487.5,-68 450.5,-68"/>
<text text-anchor="start" x="455.5" y="-89.3" font-family="Times,serif" font-size="14.00"> eq </text>
<polygon fill="none" stroke="black" points="487.5,-68 487.5,-118 510.5,-118 510.5,-68 487.5,-68"/>
<text text-anchor="start" x="492.5" y="-89.3" font-family="Times,serif" font-size="14.00">●</text>
<polygon fill="none" stroke="black" points="427.5,-68 427.5,-93 450.5,-93 450.5,-68 427.5,-68"/>
<text text-anchor="start" x="434" y="-76.8" font-family="Times,serif" font-size="14.00">1</text>
</g>
<!-- cluster_GradLife_io_state&#45;&gt;op_eq_3 -->
<g id="edge24" class="edge">
<title>cluster_GradLife_io_state&#45;&gt;op_eq_3:in1</title>
<path fill="none" stroke="black" d="M235.88,-68.29C250.6,-73.45 267.97,-79.05 284,-83 312.22,-89.96 379.98,-103.19 416.31,-105.61"/>
<polygon fill="black" stroke="black" points="416.37,-109.12 426.5,-106 416.64,-102.12 416.37,-109.12"/>
</g>
<!-- op_eq_5 -->
<g id="node20" class="node">
<title>op_eq_5</title>
<polygon fill="#d8bfd8" stroke="transparent" points="292,-116 292,-166 375,-166 375,-116 292,-116"/>
<polygon fill="none" stroke="black" points="292.5,-141 292.5,-166 315.5,-166 315.5,-141 292.5,-141"/>
<text text-anchor="start" x="297.5" y="-149.8" font-family="Times,serif" font-size="14.00">●</text>
<polygon fill="none" stroke="black" points="315.5,-116 315.5,-166 352.5,-166 352.5,-116 315.5,-116"/>
<text text-anchor="start" x="320.5" y="-137.3" font-family="Times,serif" font-size="14.00"> eq </text>
<polygon fill="none" stroke="black" points="352.5,-116 352.5,-166 375.5,-166 375.5,-116 352.5,-116"/>
<text text-anchor="start" x="357.5" y="-137.3" font-family="Times,serif" font-size="14.00">●</text>
<polygon fill="none" stroke="black" points="292.5,-116 292.5,-141 315.5,-141 315.5,-116 292.5,-116"/>
<text text-anchor="start" x="299" y="-124.8" font-family="Times,serif" font-size="14.00">2</text>
</g>
<!-- cluster_GradLife_io_state&#45;&gt;op_eq_5 -->
<g id="edge10" class="edge">
<title>cluster_GradLife_io_state&#45;&gt;op_eq_5:in1</title>
<path fill="none" stroke="black" d="M235.7,-72.23C240.1,-75.16 244.33,-78.43 248,-82 271.96,-105.33 257.95,-144.53 281.48,-152.54"/>
<polygon fill="black" stroke="black" points="281.1,-156.03 291.5,-154 282.11,-149.1 281.1,-156.03"/>
</g>
<!-- cluster_GradLife_io_coffee -->
<g id="node4" class="node">
<title>cluster_GradLife_io_coffee</title>
<polygon fill="#cccccc" stroke="black" points="104.5,-330 26.5,-330 26.5,-294 104.5,-294 104.5,-330"/>
<text text-anchor="middle" x="65.5" y="-308.3" font-family="Times,serif" font-size="14.00">io_coffee</text>
</g>
<!-- mux_913588765 -->
<g id="node11" class="node">
<title>mux_913588765</title>
<polygon fill="#afeeee" stroke="transparent" points="432.5,-220 432.5,-270 504.5,-270 504.5,-220 432.5,-220"/>
<polygon fill="none" stroke="black" points="432.5,-245 432.5,-270 455.5,-270 455.5,-245 432.5,-245"/>
<text text-anchor="start" x="439" y="-253.8" font-family="Times,serif" font-size="14.00">1</text>
<polygon fill="none" stroke="black" points="455.5,-220 455.5,-270 481.5,-270 481.5,-220 455.5,-220"/>
<text text-anchor="start" x="460.5" y="-241.3" font-family="Times,serif" font-size="14.00">a?</text>
<polygon fill="none" stroke="black" points="481.5,-220 481.5,-270 504.5,-270 504.5,-220 481.5,-220"/>
<text text-anchor="start" x="486.5" y="-241.3" font-family="Times,serif" font-size="14.00">●</text>
<polygon fill="none" stroke="black" points="432.5,-220 432.5,-245 455.5,-245 455.5,-220 432.5,-220"/>
<text text-anchor="start" x="437.5" y="-228.8" font-family="Times,serif" font-size="14.00">●</text>
</g>
<!-- cluster_GradLife_io_coffee&#45;&gt;mux_913588765 -->
<g id="edge14" class="edge">
<title>cluster_GradLife_io_coffee&#45;&gt;mux_913588765:select</title>
<path fill="none" stroke="black" d="M104.58,-330.32C108.33,-332.95 111.89,-335.84 115,-339 138.72,-363.08 122.05,-388.54 151,-406 195.15,-432.62 338.41,-432.88 383,-407 410.89,-390.81 401.94,-371.37 419,-344 437.8,-313.85 463.18,-310.59 467.77,-281.06"/>
<polygon fill="black" stroke="black" points="471.27,-281.23 468.5,-271 464.29,-280.72 471.27,-281.23"/>
</g>
<!-- mux_299112691 -->
<g id="node16" class="node">
<title>mux_299112691</title>
<polygon fill="#afeeee" stroke="transparent" points="432.5,-357 432.5,-407 504.5,-407 504.5,-357 432.5,-357"/>
<polygon fill="none" stroke="black" points="432.5,-382 432.5,-407 455.5,-407 455.5,-382 432.5,-382"/>
<text text-anchor="start" x="439" y="-390.8" font-family="Times,serif" font-size="14.00">1</text>
<polygon fill="none" stroke="black" points="455.5,-357 455.5,-407 481.5,-407 481.5,-357 455.5,-357"/>
<text text-anchor="start" x="460.5" y="-378.3" font-family="Times,serif" font-size="14.00">a?</text>
<polygon fill="none" stroke="black" points="481.5,-357 481.5,-407 504.5,-407 504.5,-357 481.5,-357"/>
<text text-anchor="start" x="486.5" y="-378.3" font-family="Times,serif" font-size="14.00">●</text>
<polygon fill="none" stroke="black" points="432.5,-357 432.5,-382 455.5,-382 455.5,-357 432.5,-357"/>
<text text-anchor="start" x="437.5" y="-365.8" font-family="Times,serif" font-size="14.00">●</text>
</g>
<!-- cluster_GradLife_io_coffee&#45;&gt;mux_299112691 -->
<g id="edge20" class="edge">
<title>cluster_GradLife_io_coffee&#45;&gt;mux_299112691:select</title>
<path fill="none" stroke="black" d="M104.83,-330.09C108.53,-332.76 112.01,-335.73 115,-339 141.58,-368.08 118.05,-398.41 151,-420 266.23,-495.5 458.81,-546.67 468.15,-418"/>
<polygon fill="black" stroke="black" points="471.65,-418.12 468.5,-408 464.65,-417.87 471.65,-418.12"/>
</g>
<!-- op_or_6 -->
<g id="node22" class="node">
<title>op_or_6</title>
<polygon fill="#d8bfd8" stroke="transparent" points="159,-343 159,-393 240,-393 240,-343 159,-343"/>
<polygon fill="none" stroke="black" points="159.5,-368 159.5,-393 182.5,-393 182.5,-368 159.5,-368"/>
<text text-anchor="start" x="164.5" y="-376.8" font-family="Times,serif" font-size="14.00">●</text>
<polygon fill="none" stroke="black" points="182.5,-343 182.5,-393 217.5,-393 217.5,-343 182.5,-343"/>
<text text-anchor="start" x="187.5" y="-364.3" font-family="Times,serif" font-size="14.00"> or </text>
<polygon fill="none" stroke="black" points="217.5,-343 217.5,-393 240.5,-393 240.5,-343 217.5,-343"/>
<text text-anchor="start" x="222.5" y="-364.3" font-family="Times,serif" font-size="14.00">●</text>
<polygon fill="none" stroke="black" points="159.5,-343 159.5,-368 182.5,-368 182.5,-343 159.5,-343"/>
<text text-anchor="start" x="164.5" y="-351.8" font-family="Times,serif" font-size="14.00">●</text>
</g>
<!-- cluster_GradLife_io_coffee&#45;&gt;op_or_6 -->
<g id="edge1" class="edge">
<title>cluster_GradLife_io_coffee&#45;&gt;op_or_6:in1</title>
<path fill="none" stroke="black" d="M101.63,-330.11C106.24,-332.91 110.82,-335.9 115,-339 133.38,-352.63 132.51,-373.5 148.45,-379.4"/>
<polygon fill="black" stroke="black" points="148.07,-382.88 158.5,-381 149.17,-375.97 148.07,-382.88"/>
</g>
<!-- cluster_GradLife_io_idea -->
<g id="node5" class="node">
<title>cluster_GradLife_io_idea</title>
<polygon fill="#cccccc" stroke="black" points="98.5,-276 32.5,-276 32.5,-240 98.5,-240 98.5,-276"/>
<text text-anchor="middle" x="65.5" y="-254.3" font-family="Times,serif" font-size="14.00">io_idea</text>
</g>
<!-- mux_405214331 -->
<g id="node12" class="node">
<title>mux_405214331</title>
<polygon fill="#afeeee" stroke="transparent" points="297.5,-192 297.5,-242 369.5,-242 369.5,-192 297.5,-192"/>
<polygon fill="none" stroke="black" points="297.5,-217 297.5,-242 320.5,-242 320.5,-217 297.5,-217"/>
<text text-anchor="start" x="304" y="-225.8" font-family="Times,serif" font-size="14.00">0</text>
<polygon fill="none" stroke="black" points="320.5,-192 320.5,-242 346.5,-242 346.5,-192 320.5,-192"/>
<text text-anchor="start" x="325.5" y="-213.3" font-family="Times,serif" font-size="14.00">a?</text>
<polygon fill="none" stroke="black" points="346.5,-192 346.5,-242 369.5,-242 369.5,-192 346.5,-192"/>
<text text-anchor="start" x="351.5" y="-213.3" font-family="Times,serif" font-size="14.00">●</text>
<polygon fill="none" stroke="black" points="297.5,-192 297.5,-217 320.5,-217 320.5,-192 297.5,-192"/>
<text text-anchor="start" x="302.5" y="-200.8" font-family="Times,serif" font-size="14.00">●</text>
</g>
<!-- cluster_GradLife_io_idea&#45;&gt;mux_405214331 -->
<g id="edge26" class="edge">
<title>cluster_GradLife_io_idea&#45;&gt;mux_405214331:select</title>
<path fill="none" stroke="black" d="M98.59,-275.27C104.12,-278.42 109.77,-281.74 115,-285 131.53,-295.31 132.41,-304.18 151,-310 192.14,-322.88 210.08,-330.5 248,-310 273.7,-296.11 260.13,-271.84 284,-255 298.31,-244.9 320.09,-256.79 329.23,-252.22"/>
<polygon fill="black" stroke="black" points="332.47,-253.55 333.5,-243 326.12,-250.6 332.47,-253.55"/>
</g>
<!-- op_or_4 -->
<g id="node18" class="node">
<title>op_or_4</title>
<polygon fill="#d8bfd8" stroke="transparent" points="159,-247 159,-297 240,-297 240,-247 159,-247"/>
<polygon fill="none" stroke="black" points="159.5,-272 159.5,-297 182.5,-297 182.5,-272 159.5,-272"/>
<text text-anchor="start" x="164.5" y="-280.8" font-family="Times,serif" font-size="14.00">●</text>
<polygon fill="none" stroke="black" points="182.5,-247 182.5,-297 217.5,-297 217.5,-247 182.5,-247"/>
<text text-anchor="start" x="187.5" y="-268.3" font-family="Times,serif" font-size="14.00"> or </text>
<polygon fill="none" stroke="black" points="217.5,-247 217.5,-297 240.5,-297 240.5,-247 217.5,-247"/>
<text text-anchor="start" x="222.5" y="-268.3" font-family="Times,serif" font-size="14.00">●</text>
<polygon fill="none" stroke="black" points="159.5,-247 159.5,-272 182.5,-272 182.5,-247 159.5,-247"/>
<text text-anchor="start" x="164.5" y="-255.8" font-family="Times,serif" font-size="14.00">●</text>
</g>
<!-- cluster_GradLife_io_idea&#45;&gt;op_or_4 -->
<g id="edge5" class="edge">
<title>cluster_GradLife_io_idea&#45;&gt;op_or_4:in2</title>
<path fill="none" stroke="black" d="M98.86,-258.52C113.46,-258.72 131.2,-258.92 148.11,-258.98"/>
<polygon fill="black" stroke="black" points="148.49,-262.48 158.5,-259 148.51,-255.48 148.49,-262.48"/>
</g>
<!-- cluster_GradLife_io_idea&#45;&gt;op_or_6 -->
<g id="edge23" class="edge">
<title>cluster_GradLife_io_idea&#45;&gt;op_or_6:in2</title>
<path fill="none" stroke="black" d="M98.62,-272.83C104.44,-276.34 110.19,-280.41 115,-285 138.62,-307.51 125.62,-345.45 148.37,-353.48"/>
<polygon fill="black" stroke="black" points="148.09,-356.98 158.5,-355 149.13,-350.05 148.09,-356.98"/>
</g>
<!-- cluster_GradLife_io_pressure -->
<g id="node6" class="node">
<title>cluster_GradLife_io_pressure</title>
<polygon fill="#cccccc" stroke="black" points="115,-214 16,-214 16,-178 115,-178 115,-214"/>
<text text-anchor="middle" x="65.5" y="-192.3" font-family="Times,serif" font-size="14.00">io_pressure</text>
</g>
<!-- mux_1571935957 -->
<g id="node13" class="node">
<title>mux_1571935957</title>
<polygon fill="#afeeee" stroke="transparent" points="165,-95 165,-145 234,-145 234,-95 165,-95"/>
<polygon fill="none" stroke="black" points="165.5,-120 165.5,-145 185.5,-145 185.5,-120 165.5,-120"/>
<text text-anchor="start" x="170.5" y="-128.8" font-family="Times,serif" font-size="14.00">2</text>
<polygon fill="none" stroke="black" points="185.5,-95 185.5,-145 211.5,-145 211.5,-95 185.5,-95"/>
<text text-anchor="start" x="190.5" y="-116.3" font-family="Times,serif" font-size="14.00">a?</text>
<polygon fill="none" stroke="black" points="211.5,-95 211.5,-145 234.5,-145 234.5,-95 211.5,-95"/>
<text text-anchor="start" x="216.5" y="-116.3" font-family="Times,serif" font-size="14.00">●</text>
<polygon fill="none" stroke="black" points="165.5,-95 165.5,-120 185.5,-120 185.5,-95 165.5,-95"/>
<text text-anchor="start" x="170.5" y="-103.8" font-family="Times,serif" font-size="14.00">0</text>
</g>
<!-- cluster_GradLife_io_pressure&#45;&gt;mux_1571935957 -->
<g id="edge2" class="edge">
<title>cluster_GradLife_io_pressure&#45;&gt;mux_1571935957:select</title>
<path fill="none" stroke="black" d="M102.95,-177.92C117.64,-171.08 134.9,-163.61 151,-158 167.07,-152.41 187.02,-161.52 194.98,-155.39"/>
<polygon fill="black" stroke="black" points="198.27,-156.59 198.5,-146 191.71,-154.14 198.27,-156.59"/>
</g>
<!-- cluster_GradLife_io_pressure&#45;&gt;op_or_4 -->
<g id="edge12" class="edge">
<title>cluster_GradLife_io_pressure&#45;&gt;op_or_4:in1</title>
<path fill="none" stroke="black" d="M94.19,-214.04C101.27,-219.17 108.67,-225 115,-231 134.39,-249.39 129.69,-276.49 148.19,-283.37"/>
<polygon fill="black" stroke="black" points="148.08,-286.89 158.5,-285 149.17,-279.98 148.08,-286.89"/>
</g>
<!-- mux_1636204021 -->
<g id="node23" class="node">
<title>mux_1636204021</title>
<polygon fill="#afeeee" stroke="transparent" points="165,-171 165,-221 234,-221 234,-171 165,-171"/>
<polygon fill="none" stroke="black" points="165.5,-196 165.5,-221 185.5,-221 185.5,-196 165.5,-196"/>
<text text-anchor="start" x="170.5" y="-204.8" font-family="Times,serif" font-size="14.00">3</text>
<polygon fill="none" stroke="black" points="185.5,-171 185.5,-221 211.5,-221 211.5,-171 185.5,-171"/>
<text text-anchor="start" x="190.5" y="-192.3" font-family="Times,serif" font-size="14.00">a?</text>
<polygon fill="none" stroke="black" points="211.5,-171 211.5,-221 234.5,-221 234.5,-171 211.5,-171"/>
<text text-anchor="start" x="216.5" y="-192.3" font-family="Times,serif" font-size="14.00">●</text>
<polygon fill="none" stroke="black" points="165.5,-171 165.5,-196 185.5,-196 185.5,-171 165.5,-171"/>
<text text-anchor="start" x="170.5" y="-179.8" font-family="Times,serif" font-size="14.00">0</text>
</g>
<!-- cluster_GradLife_io_pressure&#45;&gt;mux_1636204021 -->
<g id="edge25" class="edge">
<title>cluster_GradLife_io_pressure&#45;&gt;mux_1636204021:select</title>
<path fill="none" stroke="black" d="M113.78,-177.95C143.08,-167.8 177.74,-157.94 191.94,-162.23"/>
<polygon fill="black" stroke="black" points="189.37,-164.62 198.5,-170 194.72,-160.1 189.37,-164.62"/>
</g>
<!-- cluster_GradLife_io_nextState -->
<g id="node7" class="node">
<title>cluster_GradLife_io_nextState</title>
<polygon fill="#e0ffff" stroke="black" points="908,-213 802,-213 802,-177 908,-177 908,-213"/>
<text text-anchor="middle" x="855" y="-191.3" font-family="Times,serif" font-size="14.00">io_nextState</text>
</g>
<!-- cluster_GradLife__T -->
<g id="node8" class="node">
<title>cluster_GradLife__T</title>
<polygon fill="none" stroke="black" points="625,-99 571,-99 571,-63 625,-63 625,-99"/>
<text text-anchor="middle" x="598" y="-77.3" font-family="Times,serif" font-size="14.00">_T</text>
</g>
<!-- mux_900438396 -->
<g id="node10" class="node">
<title>mux_900438396</title>
<polygon fill="#afeeee" stroke="transparent" points="686,-170 686,-220 758,-220 758,-170 686,-170"/>
<polygon fill="none" stroke="black" points="686,-195 686,-220 709,-220 709,-195 686,-195"/>
<text text-anchor="start" x="691" y="-203.8" font-family="Times,serif" font-size="14.00">●</text>
<polygon fill="none" stroke="black" points="709,-170 709,-220 735,-220 735,-170 709,-170"/>
<text text-anchor="start" x="714" y="-191.3" font-family="Times,serif" font-size="14.00">a?</text>
<polygon fill="none" stroke="black" points="735,-170 735,-220 758,-220 758,-170 735,-170"/>
<text text-anchor="start" x="740" y="-191.3" font-family="Times,serif" font-size="14.00">●</text>
<polygon fill="none" stroke="black" points="686,-170 686,-195 709,-195 709,-170 686,-170"/>
<text text-anchor="start" x="691" y="-178.8" font-family="Times,serif" font-size="14.00">●</text>
</g>
<!-- cluster_GradLife__T&#45;&gt;mux_900438396 -->
<g id="edge21" class="edge">
<title>cluster_GradLife__T&#45;&gt;mux_900438396:select</title>
<path fill="none" stroke="black" d="M625.09,-87.17C658.51,-96.67 713.11,-118.21 721.03,-158.85"/>
<polygon fill="black" stroke="black" points="717.56,-159.38 722,-169 724.53,-158.71 717.56,-159.38"/>
</g>
<!-- op_eq_2&#45;&gt;cluster_GradLife__T -->
<g id="edge6" class="edge">
<title>op_eq_2:out&#45;&gt;cluster_GradLife__T</title>
<path fill="none" stroke="black" d="M376.5,-45C439.55,-45 456.14,-42.83 518,-55 532.34,-57.82 547.69,-62.47 561,-67.07"/>
<polygon fill="black" stroke="black" points="560.15,-70.48 570.74,-70.54 562.5,-63.89 560.15,-70.48"/>
</g>
<!-- mux_900438396&#45;&gt;cluster_GradLife_io_nextState -->
<g id="edge18" class="edge">
<title>mux_900438396:out&#45;&gt;cluster_GradLife_io_nextState</title>
<path fill="none" stroke="black" d="M759,-195C769.5,-195 780.65,-195 791.48,-195"/>
<polygon fill="black" stroke="black" points="791.73,-198.5 801.73,-195 791.73,-191.5 791.73,-198.5"/>
</g>
<!-- mux_913588765&#45;&gt;mux_900438396 -->
<g id="edge17" class="edge">
<title>mux_913588765:out&#45;&gt;mux_900438396:in1</title>
<path fill="none" stroke="black" d="M505.5,-245C567.18,-245 581.9,-233.86 642,-220 657.56,-216.41 663.07,-210.83 674.97,-208.78"/>
<polygon fill="black" stroke="black" points="675.3,-212.27 685,-208 674.76,-205.29 675.3,-212.27"/>
</g>
<!-- mux_405214331&#45;&gt;mux_913588765 -->
<g id="edge16" class="edge">
<title>mux_405214331:out&#45;&gt;mux_913588765:in2</title>
<path fill="none" stroke="black" d="M370.5,-217C394.71,-217 401.81,-228.28 421.47,-231.28"/>
<polygon fill="black" stroke="black" points="421.27,-234.77 431.5,-232 421.78,-227.79 421.27,-234.77"/>
</g>
<!-- mux_1571935957&#45;&gt;mux_405214331 -->
<g id="edge15" class="edge">
<title>mux_1571935957:out&#45;&gt;mux_405214331:in2</title>
<path fill="none" stroke="black" d="M223.5,-146C223.5,-158.12 238.04,-151.08 248,-158 269.16,-172.7 267.75,-196.5 286.38,-202.56"/>
<polygon fill="black" stroke="black" points="286.11,-206.06 296.5,-204 287.09,-199.13 286.11,-206.06"/>
</g>
<!-- mux_1896601231 -->
<g id="node14" class="node">
<title>mux_1896601231</title>
<polygon fill="#afeeee" stroke="transparent" points="562,-157 562,-207 634,-207 634,-157 562,-157"/>
<polygon fill="none" stroke="black" points="562,-182 562,-207 585,-207 585,-182 562,-182"/>
<text text-anchor="start" x="567" y="-190.8" font-family="Times,serif" font-size="14.00">●</text>
<polygon fill="none" stroke="black" points="585,-157 585,-207 611,-207 611,-157 585,-157"/>
<text text-anchor="start" x="590" y="-178.3" font-family="Times,serif" font-size="14.00">a?</text>
<polygon fill="none" stroke="black" points="611,-157 611,-207 634,-207 634,-157 611,-157"/>
<text text-anchor="start" x="616" y="-178.3" font-family="Times,serif" font-size="14.00">●</text>
<polygon fill="none" stroke="black" points="562,-157 562,-182 585,-182 585,-157 562,-157"/>
<text text-anchor="start" x="567" y="-165.8" font-family="Times,serif" font-size="14.00">●</text>
</g>
<!-- mux_1896601231&#45;&gt;mux_900438396 -->
<g id="edge9" class="edge">
<title>mux_1896601231:out&#45;&gt;mux_900438396:in2</title>
<path fill="none" stroke="black" d="M635,-182C653.4,-182 660.38,-182 674.85,-182"/>
<polygon fill="black" stroke="black" points="675,-185.5 685,-182 675,-178.5 675,-185.5"/>
</g>
<!-- op_eq_3&#45;&gt;mux_1896601231 -->
<g id="edge8" class="edge">
<title>op_eq_3:out&#45;&gt;mux_1896601231:select</title>
<path fill="none" stroke="black" d="M499.5,-119C499.5,-128.64 566.41,-139.58 589.94,-149.68"/>
<polygon fill="black" stroke="black" points="587.97,-152.58 598,-156 592.29,-147.07 587.97,-152.58"/>
</g>
<!-- mux_299112691&#45;&gt;mux_1896601231 -->
<g id="edge7" class="edge">
<title>mux_299112691:out&#45;&gt;mux_1896601231:in1</title>
<path fill="none" stroke="black" d="M493.5,-356C493.5,-284.83 565.72,-282.71 572.49,-218.01"/>
<polygon fill="black" stroke="black" points="575.99,-218.16 573,-208 569,-217.81 575.99,-218.16"/>
</g>
<!-- mux_2033124042 -->
<g id="node17" class="node">
<title>mux_2033124042</title>
<polygon fill="#afeeee" stroke="transparent" points="299,-344 299,-394 368,-394 368,-344 299,-344"/>
<polygon fill="none" stroke="black" points="299.5,-369 299.5,-394 319.5,-394 319.5,-369 299.5,-369"/>
<text text-anchor="start" x="304.5" y="-377.8" font-family="Times,serif" font-size="14.00">2</text>
<polygon fill="none" stroke="black" points="319.5,-344 319.5,-394 345.5,-394 345.5,-344 319.5,-344"/>
<text text-anchor="start" x="324.5" y="-365.3" font-family="Times,serif" font-size="14.00">a?</text>
<polygon fill="none" stroke="black" points="345.5,-344 345.5,-394 368.5,-394 368.5,-344 345.5,-344"/>
<text text-anchor="start" x="350.5" y="-365.3" font-family="Times,serif" font-size="14.00">●</text>
<polygon fill="none" stroke="black" points="299.5,-344 299.5,-369 319.5,-369 319.5,-344 299.5,-344"/>
<text text-anchor="start" x="304.5" y="-352.8" font-family="Times,serif" font-size="14.00">0</text>
</g>
<!-- mux_2033124042&#45;&gt;mux_299112691 -->
<g id="edge22" class="edge">
<title>mux_2033124042:out&#45;&gt;mux_299112691:in2</title>
<path fill="none" stroke="black" d="M369.5,-369C393.29,-369 401.67,-369 421.25,-369"/>
<polygon fill="black" stroke="black" points="421.5,-372.5 431.5,-369 421.5,-365.5 421.5,-372.5"/>
</g>
<!-- op_or_4&#45;&gt;mux_2033124042 -->
<g id="edge13" class="edge">
<title>op_or_4:out&#45;&gt;mux_2033124042:select</title>
<path fill="none" stroke="black" d="M229.5,-298C229.5,-326.32 257.85,-320.14 284,-331 300.02,-337.65 320.61,-327.68 328.85,-333.59"/>
<polygon fill="black" stroke="black" points="325.62,-334.94 332.5,-343 332.15,-332.41 325.62,-334.94"/>
</g>
<!-- mux_2031820164 -->
<g id="node19" class="node">
<title>mux_2031820164</title>
<polygon fill="#afeeee" stroke="transparent" points="432.5,-144 432.5,-194 504.5,-194 504.5,-144 432.5,-144"/>
<polygon fill="none" stroke="black" points="432.5,-169 432.5,-194 455.5,-194 455.5,-169 432.5,-169"/>
<text text-anchor="start" x="437.5" y="-177.8" font-family="Times,serif" font-size="14.00">●</text>
<polygon fill="none" stroke="black" points="455.5,-144 455.5,-194 481.5,-194 481.5,-144 455.5,-144"/>
<text text-anchor="start" x="460.5" y="-165.3" font-family="Times,serif" font-size="14.00">a?</text>
<polygon fill="none" stroke="black" points="481.5,-144 481.5,-194 504.5,-194 504.5,-144 481.5,-144"/>
<text text-anchor="start" x="486.5" y="-165.3" font-family="Times,serif" font-size="14.00">●</text>
<polygon fill="none" stroke="black" points="432.5,-144 432.5,-169 455.5,-169 455.5,-144 432.5,-144"/>
<text text-anchor="start" x="439" y="-152.8" font-family="Times,serif" font-size="14.00">0</text>
</g>
<!-- mux_2031820164&#45;&gt;mux_1896601231 -->
<g id="edge27" class="edge">
<title>mux_2031820164:out&#45;&gt;mux_1896601231:in2</title>
<path fill="none" stroke="black" d="M505.5,-169C526.31,-169 533.95,-169 550.65,-169"/>
<polygon fill="black" stroke="black" points="551,-172.5 561,-169 551,-165.5 551,-172.5"/>
</g>
<!-- op_eq_5&#45;&gt;mux_2031820164 -->
<g id="edge3" class="edge">
<title>op_eq_5:out&#45;&gt;mux_2031820164:select</title>
<path fill="none" stroke="black" d="M376.5,-141C393.19,-141 443.95,-128.7 462.02,-135.32"/>
<polygon fill="black" stroke="black" points="459.38,-137.61 468.5,-143 464.73,-133.1 459.38,-137.61"/>
</g>
<!-- mux_797330543 -->
<g id="node21" class="node">
<title>mux_797330543</title>
<polygon fill="#afeeee" stroke="transparent" points="297.5,-268 297.5,-318 369.5,-318 369.5,-268 297.5,-268"/>
<polygon fill="none" stroke="black" points="297.5,-293 297.5,-318 320.5,-318 320.5,-293 297.5,-293"/>
<text text-anchor="start" x="304" y="-301.8" font-family="Times,serif" font-size="14.00">2</text>
<polygon fill="none" stroke="black" points="320.5,-268 320.5,-318 346.5,-318 346.5,-268 320.5,-268"/>
<text text-anchor="start" x="325.5" y="-289.3" font-family="Times,serif" font-size="14.00">a?</text>
<polygon fill="none" stroke="black" points="346.5,-268 346.5,-318 369.5,-318 369.5,-268 346.5,-268"/>
<text text-anchor="start" x="351.5" y="-289.3" font-family="Times,serif" font-size="14.00">●</text>
<polygon fill="none" stroke="black" points="297.5,-268 297.5,-293 320.5,-293 320.5,-268 297.5,-268"/>
<text text-anchor="start" x="302.5" y="-276.8" font-family="Times,serif" font-size="14.00">●</text>
</g>
<!-- mux_797330543&#45;&gt;mux_2031820164 -->
<g id="edge11" class="edge">
<title>mux_797330543:out&#45;&gt;mux_2031820164:in1</title>
<path fill="none" stroke="black" d="M358.5,-267C358.5,-254.88 373.66,-262.73 383,-255 403.54,-238 398.46,-224 419,-207 424.25,-202.65 431.35,-203.23 436.55,-202.42"/>
<polygon fill="black" stroke="black" points="439.22,-204.69 443.5,-195 434.11,-199.91 439.22,-204.69"/>
</g>
<!-- op_or_6&#45;&gt;mux_797330543 -->
<g id="edge28" class="edge">
<title>op_or_6:out&#45;&gt;mux_797330543:select</title>
<path fill="none" stroke="black" d="M229.5,-342C229.5,-321.94 304.23,-336.37 326.99,-326.81"/>
<polygon fill="black" stroke="black" points="329.79,-328.92 333.5,-319 324.41,-324.45 329.79,-328.92"/>
</g>
<!-- mux_1636204021&#45;&gt;mux_797330543 -->
<g id="edge4" class="edge">
<title>mux_1636204021:out&#45;&gt;mux_797330543:in2</title>
<path fill="none" stroke="black" d="M223.5,-222C223.5,-234.12 238.04,-227.08 248,-234 269.16,-248.7 267.75,-272.5 286.38,-278.56"/>
<polygon fill="black" stroke="black" points="286.11,-282.06 296.5,-280 287.09,-275.13 286.11,-282.06"/>
</g>
</g>
</svg>
